<?xml version="1.0" encoding="UTF-8" standalone="no"?><!DOCTYPE svg PUBLIC "-//W3C//DTD SVG 1.1//EN" "http://www.w3.org/Graphics/SVG/1.1/DTD/svg11.dtd"><svg width="100%" height="100%" viewBox="0 0 13750 9167" version="1.1" xmlns="http://www.w3.org/2000/svg" xmlns:xlink="http://www.w3.org/1999/xlink" xml:space="preserve" xmlns:serif="http://www.serif.com/" style="fill-rule:evenodd;clip-rule:evenodd;"><g id="Notes"><rect id="artboard" x="311.767" y="-529.491" width="13750" height="9166.67" style="fill:#fff;"/><path d="M1095.83,1216.67l11554.2,-0" style="fill:none;fill-rule:nonzero;stroke:#000;stroke-width:2.08px;"/><text x="1095.83px" y="1341.67px" style="font-family:'SFProDisplay-Regular', 'SF Pro Display';font-size:66.667px;">W<tspan x="1153.84px " y="1341.67px ">e</tspan>ight/Scale V<tspan x="1517.97px " y="1341.67px ">a</tspan>riations</text><text x="2205.42px" y="1341.67px" style="font-family:'SFProDisplay-Regular', 'SF Pro Display';font-size:66.667px;">Ultr<tspan x="2305.42px " y="1341.67px ">a</tspan>light</text><text x="3506.66px" y="1341.67px" style="font-family:'SFProDisplay-Regular', 'SF Pro Display';font-size:66.667px;">Thin</text><text x="4734.05px" y="1341.67px" style="font-family:'SFProDisplay-Regular', 'SF Pro Display';font-size:66.667px;">Light</text><text x="5934.29px" y="1341.67px" style="font-family:'SFProDisplay-Regular', 'SF Pro Display';font-size:66.667px;">Regular</text><text x="7162.9px" y="1341.67px" style="font-family:'SFProDisplay-Regular', 'SF Pro Display';font-size:66.667px;">Medium</text><text x="8381.72px" y="1341.67px" style="font-family:'SFProDisplay-Regular', 'SF Pro Display';font-size:66.667px;">Semibold</text><text x="9686.81px" y="1341.67px" style="font-family:'SFProDisplay-Regular', 'SF Pro Display';font-size:66.667px;">Bold</text><text x="10896.8px" y="1341.67px" style="font-family:'SFProDisplay-Regular', 'SF Pro Display';font-size:66.667px;">Heavy</text><text x="12145.9px" y="1341.67px" style="font-family:'SFProDisplay-Regular', 'SF Pro Display';font-size:66.667px;">Black</text><path d="M1095.83,7929.17l11554.2,-0" style="fill:none;fill-rule:nonzero;stroke:#000;stroke-width:2.08px;"/><g><path d="M1134.37,8057.62c17.944,0 32.878,-14.892 32.878,-32.837c-0,-17.944 -14.975,-32.836 -32.919,-32.836c-17.903,-0 -32.796,14.892 -32.796,32.836c-0,17.945 14.933,32.837 32.837,32.837Zm-0,-6.185c-14.771,0 -26.571,-11.84 -26.571,-26.652c0,-14.811 11.76,-26.652 26.53,-26.652c14.812,0 26.652,11.841 26.693,26.652c0.041,14.812 -11.841,26.652 -26.652,26.652Zm-11.882,-23.6l8.789,0l0,8.83c0,1.831 1.221,3.092 3.012,3.092c1.871,0 3.092,-1.261 3.092,-3.092l-0,-8.83l8.87,0c1.832,0 3.093,-1.221 3.093,-3.011c-0,-1.831 -1.261,-3.092 -3.093,-3.092l-8.87,-0l-0,-8.789c-0,-1.872 -1.221,-3.133 -3.092,-3.133c-1.791,-0 -3.012,1.261 -3.012,3.133l0,8.789l-8.789,-0c-1.871,-0 -3.133,1.261 -3.133,3.092c0,1.79 1.262,3.011 3.133,3.011Z" style="fill-rule:nonzero;"/></g><g><path d="M1221.73,8066.29c22.705,0 41.504,-18.839 41.504,-41.504c-0,-22.705 -18.84,-41.503 -41.545,-41.503c-22.664,-0 -41.463,18.798 -41.463,41.503c0,22.665 18.84,41.504 41.504,41.504Zm0,-6.917c-19.206,0 -34.546,-15.381 -34.546,-34.587c0,-19.205 15.3,-34.586 34.505,-34.586c19.206,-0 34.587,15.381 34.628,34.586c0.04,19.206 -15.381,34.587 -34.587,34.587Zm-15.503,-31.169l12.044,0l0,12.126c0,2.035 1.384,3.418 3.378,3.418c2.034,0 3.458,-1.383 3.458,-3.418l0,-12.126l12.126,0c2.035,0 3.418,-1.383 3.418,-3.377c0,-2.034 -1.383,-3.459 -3.418,-3.459l-12.126,0l0,-12.044c0,-2.116 -1.424,-3.499 -3.458,-3.499c-1.994,-0 -3.378,1.424 -3.378,3.499l0,12.044l-12.044,0c-2.116,0 -3.499,1.425 -3.499,3.459c-0,1.994 1.424,3.377 3.499,3.377Z" style="fill-rule:nonzero;"/></g><g><path d="M1332.89,8077.77c29.012,-0 53.019,-24.007 53.019,-52.979c-0,-29.012 -24.048,-53.019 -53.06,-53.019c-28.971,0 -52.938,24.007 -52.938,53.019c0,28.972 24.007,52.979 52.979,52.979Zm-0,-7.568c-25.147,-0 -45.37,-20.264 -45.37,-45.411c0,-25.187 20.182,-45.41 45.329,-45.41c25.187,0 45.41,20.223 45.451,45.41c0.04,25.147 -20.223,45.411 -45.41,45.411Zm-20.467,-41.626l16.682,-0l0,16.723c0,2.238 1.547,3.784 3.703,3.784c2.238,0 3.785,-1.546 3.785,-3.784l-0,-16.723l16.764,-0c2.197,-0 3.784,-1.547 3.784,-3.703c-0,-2.238 -1.546,-3.825 -3.784,-3.825l-16.764,-0l-0,-16.683c-0,-2.319 -1.547,-3.866 -3.785,-3.866c-2.156,0 -3.703,1.587 -3.703,3.866l0,16.683l-16.682,-0c-2.32,-0 -3.866,1.587 -3.866,3.825c-0,2.156 1.587,3.703 3.866,3.703Z" style="fill-rule:nonzero;"/></g><text x="1095.83px" y="8137.5px" style="font-family:'SFProDisplay-Regular', 'SF Pro Display';font-size:66.667px;">Design V<tspan x="1342.55px " y="8137.5px ">a</tspan>riations</text><text x="1095.83px" y="8212.5px" style="font-family:'SFProDisplay-Regular', 'SF Pro Display';font-size:66.667px;">Symbols ar<tspan x="1404.33px " y="8212.5px ">e</tspan> support<tspan x="1666.57px " y="8212.5px ">e</tspan>d in up t<tspan x="1918.36px " y="8212.5px ">o</tspan> nine weights and thr<tspan x="2526.2px " y="8212.5px ">e</tspan>e scales.</text><text x="1095.83px" y="8287.5px" style="font-family:'SFProDisplay-Regular', 'SF Pro Display';font-size:66.667px;">F<tspan x="1129.72px " y="8287.5px ">o</tspan>r optimal lay<tspan x="1497.62px " y="8287.5px ">o</tspan>ut with t<tspan x="1752.12px 1785.61px " y="8287.5px 8287.5px ">ex</tspan>t and other symbols,<tspan x="2374.51px 2388.18px 2419.08px " y="8287.5px 8287.5px 8287.5px "> ve</tspan>rtically align</text><text x="1095.83px" y="8362.5px" style="font-family:'SFProDisplay-Regular', 'SF Pro Display';font-size:66.667px;">symbols with the adjacent t<tspan x="1851.43px 1884.93px " y="8362.5px 8362.5px ">ex</tspan>t.</text><path d="M3233.33,7995.83l0,58.334" style="fill:none;fill-rule:nonzero;stroke:#00aeef;stroke-width:2.08px;"/><g><path d="M3247.13,8054.7c2.157,-0 3.215,-0.814 3.988,-3.052l5.249,-14.404l24.007,-0l5.249,14.404c0.773,2.238 1.831,3.052 3.947,3.052c2.157,-0 3.54,-1.302 3.54,-3.337c0,-0.692 -0.122,-1.302 -0.447,-2.197l-19.084,-50.782c-0.936,-2.522 -2.604,-3.743 -5.208,-3.743c-2.523,0 -4.232,1.221 -5.127,3.703l-19.084,50.862c-0.326,0.896 -0.448,1.506 -0.448,2.198c0,2.034 1.302,3.296 3.418,3.296Zm11.231,-23.601l9.887,-27.384l0.204,-0l9.888,27.384l-19.979,0Z" style="fill-rule:nonzero;"/></g><path d="M3303.48,7995.83l0,58.334" style="fill:none;fill-rule:nonzero;stroke:#00aeef;stroke-width:2.08px;"/><text x="3233.33px" y="8137.5px" style="font-family:'SFProDisplay-Regular', 'SF Pro Display';font-size:66.667px;">M<tspan x="3287.76px 3321.22px 3340.14px " y="8137.5px 8137.5px 8137.5px ">arg</tspan>ins</text><text x="3233.33px" y="8212.5px" style="font-family:'SFProDisplay-Regular', 'SF Pro Display';font-size:66.667px;">L<tspan x="3267.32px " y="8212.5px ">e</tspan>ading and tr<tspan x="3630.11px " y="8212.5px ">a</tspan>iling mar<tspan x="3895.96px " y="8212.5px ">g</tspan>ins on the left and right side of each symbol</text><text x="3233.33px" y="8287.5px" style="font-family:'SFProDisplay-Regular', 'SF Pro Display';font-size:66.667px;">can be adjust<tspan x="3603.03px " y="8287.5px ">e</tspan>d b<tspan x="3723.37px " y="8287.5px ">y</tspan> modifying the x<tspan x="4194.6px " y="8287.5px ">-</tspan>location of the mar<tspan x="4736.1px " y="8287.5px ">g</tspan>in guidelines.</text><text x="3233.33px" y="8362.5px" style="font-family:'SFProDisplay-Regular', 'SF Pro Display';font-size:66.667px;">Modifications ar<tspan x="3677.02px " y="8362.5px ">e</tspan> aut<tspan x="3812.53px " y="8362.5px ">o</tspan>matically applied pr<tspan x="4383.24px " y="8362.5px ">o</tspan>portionally t<tspan x="4741.37px " y="8362.5px ">o</tspan> all</text><text x="3233.33px" y="8437.5px" style="font-family:'SFProDisplay-Regular', 'SF Pro Display';font-size:66.667px;">scales and weights.</text><g><path d="M5382.67,8061.94l7.08,7.121c3.581,3.622 7.691,3.378 11.556,-0.895l42.399,-46.712c1.099,0.366 2.238,0.285 3.54,0.041l4.436,-0.814l2.767,2.807l-0.163,2.32c-0.163,2.075 0.366,3.662 2.401,5.656l3.173,3.092c1.994,1.994 4.557,2.116 6.511,0.163l12.125,-12.167c1.954,-1.953 1.872,-4.435 -0.122,-6.429l-3.214,-3.173c-1.994,-1.994 -3.54,-2.645 -5.534,-2.483l-2.401,0.204l-2.685,-2.645l1.017,-4.679c0.529,-2.36 -0.122,-4.191 -2.564,-6.633l-9.155,-9.114c-13.916,-13.835 -32.389,-13.51 -44.433,-1.465c-1.75,1.709 -1.872,4.11 -0.896,5.737c0.977,1.506 2.889,2.482 5.575,1.79c6.103,-1.424 12.451,-1.668 18.392,2.238l-2.441,6.063c-0.814,1.994 -0.936,3.662 -0.408,5.168l-46.101,43.294c-4.11,3.825 -4.436,7.894 -0.855,11.515Zm32.959,-74.259c10.132,-7.406 23.845,-6.144 33.122,3.133l10.132,10.051c0.976,0.976 1.139,1.75 0.854,3.174l-1.343,6.184l6.267,6.185l4.11,-0.244c1.058,-0.041 1.383,0.041 2.197,0.855l2.401,2.4l-10.173,10.173l-2.401,-2.401c-0.814,-0.814 -0.936,-1.139 -0.895,-2.238l0.285,-4.069l-6.226,-6.185l-6.348,1.058c-1.342,0.285 -1.952,0.163 -2.97,-0.814l-8.341,-8.341c-1.058,-0.977 -1.18,-1.668 -0.529,-3.215l3.662,-8.707c-6.511,-6.063 -14.974,-8.667 -23.438,-6.185c-0.651,0.162 -0.895,-0.366 -0.366,-0.814Zm-22.827,76.091l-4.883,-4.843c-1.953,-1.912 -1.505,-3.336 0.163,-4.842l45.044,-42.399l6.103,6.185l-41.626,45.776c-1.464,1.669 -2.848,2.076 -4.801,0.123Z" style="fill-rule:nonzero;"/></g><text x="5370.83px" y="8137.5px" style="font-family:'SFProDisplay-Regular', 'SF Pro Display';font-size:66.667px;">Exporting</text><text x="5370.83px" y="8212.5px" style="font-family:'SFProDisplay-Regular', 'SF Pro Display';font-size:66.667px;">Symbols should be outlined when e<tspan x="6351.2px " y="8212.5px ">x</tspan>porting t<tspan x="6613.28px " y="8212.5px ">o</tspan> ensur<tspan x="6816.67px " y="8212.5px ">e</tspan> the</text><text x="5370.83px" y="8287.5px" style="font-family:'SFProDisplay-Regular', 'SF Pro Display';font-size:66.667px;">design is pr<tspan x="5686px " y="8287.5px ">e</tspan>serv<tspan x="5836.75px " y="8287.5px ">e</tspan>d when submitting t<tspan x="6416.8px " y="8287.5px ">o</tspan> X<tspan x="6505.89px " y="8287.5px ">c</tspan>ode.</text><text id="template-version" x="12247.6px" y="8054.17px" style="font-family:'SFProDisplay-Regular', 'SF Pro Display';font-size:66.667px;">T<tspan x="12277.6px " y="8054.17px ">e</tspan>mplat<tspan x="12468.1px " y="8054.17px ">e</tspan> v<tspan x="12543.2px " y="8054.17px ">.</tspan>2.0</text><text x="11851.7px" y="8129.17px" style="font-family:'SFProDisplay-Regular', 'SF Pro Display';font-size:66.667px;">Requir<tspan x="12030.1px " y="8129.17px ">e</tspan>s X<tspan x="12149px " y="8129.17px ">c</tspan>ode 12 or gr<tspan x="12508.6px " y="8129.17px ">e</tspan>at<tspan x="12595.3px " y="8129.17px ">e</tspan>r</text><text x="11825px" y="8204.17px" style="font-family:'SFProDisplay-Regular', 'SF Pro Display';font-size:66.667px;">Gener<tspan x="11995.4px 12028.9px 12048px " y="8204.17px 8204.17px 8204.17px ">ate</tspan>d fr<tspan x="12171.9px " y="8204.17px ">o</tspan>m tr<tspan x="12314.5px " y="8204.17px ">a</tspan>sh.<tspan x="12427.3px " y="8204.17px ">c</tspan>ir<tspan x="12493.3px " y="8204.17px ">c</tspan>le.fill</text><text x="12053.7px" y="8279.17px" style="font-family:'SFProDisplay-Regular', 'SF Pro Display';font-size:66.667px;">T<tspan x="12084.6px " y="8279.17px ">y</tspan>peset at 100 points</text><text x="1095.83px" y="3025px" style="font-family:'SFProDisplay-Regular', 'SF Pro Display';font-size:66.667px;">Small</text><text x="1095.83px" y="4816.67px" style="font-family:'SFProDisplay-Regular', 'SF Pro Display';font-size:66.667px;">Medium</text><text x="1095.83px" y="6608.33px" style="font-family:'SFProDisplay-Regular', 'SF Pro Display';font-size:66.667px;">Lar<tspan x="1183.17px " y="6608.33px ">g</tspan>e</text></g><g id="Guides"><g id="H-reference"><path d="M1416.57,2900l11.19,0l38.859,-101.929l136.515,0l39.063,101.929l10.986,0l-113.119,-293.579l-10.376,-0l-113.118,293.579Zm118.205,-279.745l0.407,0l64.29,168.457l-129.191,0.001l64.494,-168.458Z" style="fill:#27aae1;fill-rule:nonzero;"/></g><path id="Baseline-S" d="M1095.83,2900l11554.2,0" style="fill:none;fill-rule:nonzero;stroke:#27aae1;stroke-width:2.08px;"/><path id="Capline-S" d="M1095.83,2606.42l11554.2,-0" style="fill:none;fill-rule:nonzero;stroke:#27aae1;stroke-width:2.08px;"/><g id="H-reference1" serif:id="H-reference"><path d="M1416.57,4691.67l11.19,-0l38.859,-101.929l136.515,-0l39.063,101.929l10.986,-0l-113.119,-293.579l-10.376,-0.001l-113.118,293.58Zm118.205,-279.745l0.407,0l64.29,168.457l-129.191,0l64.494,-168.457Z" style="fill:#27aae1;fill-rule:nonzero;"/></g><path id="Baseline-M" d="M1095.83,4691.67l11554.2,-0" style="fill:none;fill-rule:nonzero;stroke:#27aae1;stroke-width:2.08px;"/><path id="Capline-M" d="M1095.83,4398.08l11554.2,0" style="fill:none;fill-rule:nonzero;stroke:#27aae1;stroke-width:2.08px;"/><g id="H-reference2" serif:id="H-reference"><path d="M1416.57,6483.33l11.19,0l38.859,-101.928l136.515,-0l39.063,101.928l10.986,0l-113.119,-293.579l-10.376,0l-113.118,293.579Zm118.205,-279.744l0.407,-0l64.29,168.457l-129.191,-0l64.494,-168.457Z" style="fill:#27aae1;fill-rule:nonzero;"/></g><path id="Baseline-L" d="M1095.83,6483.33l11554.2,0" style="fill:none;fill-rule:nonzero;stroke:#27aae1;stroke-width:2.08px;"/><path id="Capline-L" d="M1095.83,6189.75l11554.2,0" style="fill:none;fill-rule:nonzero;stroke:#27aae1;stroke-width:2.08px;"/><path id="left-margin" d="M5797.08,4294.96l0,497.209" style="fill:none;fill-rule:nonzero;stroke:#00aeef;stroke-width:2.08px;"/><path id="right-margin" d="M6284.96,4294.96l0,497.209" style="fill:none;fill-rule:nonzero;stroke:#00aeef;stroke-width:2.08px;"/></g><g id="Symbols"><g id="Black-L"><path id="Black-L1" serif:id="Black-L" d="M12225.7,6062.57c156.491,-0 283.542,127.051 283.542,283.542c-0,156.491 -127.051,283.541 -283.542,283.541c-156.491,0 -283.542,-127.05 -283.542,-283.541c0,-156.491 127.051,-283.542 283.542,-283.542Zm0.338,95.934c-2.332,0.003 -4.664,0.025 -6.992,0.064c-49.138,0.825 -96.812,9.045 -142.149,42.992l-0,146.285c19.428,106.181 68.444,169.575 150.108,185.78l0.48,0.095c82.127,-29.413 132.015,-90.504 147.018,-185.875l0,-146.285c-51.882,-35.027 -100.606,-43.045 -147.882,-43.056l-0.583,0Zm1.121,241.634c-11.811,0.321 -23.657,-12.911 -35.386,-38.041c-36.649,51.065 -73.405,55.84 -111.654,0c40.056,46.245 73.833,41.412 111.654,-8.711c23.934,48.493 44.531,52.363 66.706,-0c43.599,41.143 81.784,53.262 112.044,11.542c-29.367,51.242 -67.615,39.962 -110.338,-2.831c-10.783,25.252 -21.717,37.486 -32.683,38.028c0.67,2.329 1.371,4.576 2.105,6.739c6.355,16.844 16.955,19.999 32.339,25.338l31.942,-0c14.841,-11.988 25.43,-16.353 38.351,-32.629c-8.979,21.807 -22.28,36.914 -38.351,44.664l-31.942,-0c-14.593,-2.669 -25.064,-15.919 -32.339,-37.373c-0.768,-2.035 -1.475,-4.272 -2.12,-6.738l-0.219,0.009l-0.088,0.003c-7.174,24.506 -19.512,39.388 -37.308,44.099l-28.983,-0c-19.916,-8.562 -32.129,-24.826 -40.768,-44.664c9.514,19.806 21.772,24.265 40.768,32.629l28.983,-0c17.003,-4.582 29.27,-7.787 37.287,-32.064Zm-101.749,-108.599c10.955,10.357 22.207,15.588 33.611,15.661c11.403,0.074 22.958,-5.009 34.519,-15.28c-21.877,-20.051 -45.131,-18.069 -68.13,-0.381Zm136.667,-0c10.955,10.357 22.207,15.588 33.611,15.661c11.403,0.074 22.958,-5.009 34.519,-15.28c-21.877,-20.051 -45.131,-18.069 -68.13,-0.381Zm-8.715,-43.317c-2.268,9.478 7.422,13.847 12.76,3.934c14.232,-43.921 57.484,-49.235 80.604,0c4.498,9.58 14.728,8.882 12.986,-3.934c-29.659,-58.415 -84.145,-54.289 -106.35,0Zm-50.351,-1.482c2.269,9.478 -7.421,13.847 -12.76,3.934c-14.231,-43.921 -57.484,-49.236 -80.603,-0c-4.498,9.58 -14.728,8.882 -12.987,-3.934c29.659,-58.415 84.146,-54.289 106.35,-0Z" style="stroke:#000;stroke-width:2.41px;stroke-linecap:round;stroke-linejoin:round;stroke-miterlimit:1.5;"/></g><g id="Heavy-L"><path id="Black-L2" serif:id="Black-L" d="M10978.6,6055.37c154.076,-0 279.166,125.09 279.166,279.167c0,154.076 -125.09,279.166 -279.166,279.166c-154.076,0 -279.167,-125.09 -279.167,-279.166c0,-154.077 125.091,-279.167 279.167,-279.167Zm0.332,94.454c-2.295,0.002 -4.591,0.024 -6.883,0.063c-48.381,0.812 -95.319,8.905 -139.956,42.329l-0,144.027c19.128,104.543 67.388,166.959 147.792,182.914l0.472,0.093c80.86,-28.959 129.979,-89.107 144.75,-183.007l0,-144.027c-51.082,-34.487 -99.054,-42.381 -145.6,-42.392l-0.575,-0Zm1.105,237.906c-11.63,0.316 -23.293,-12.712 -34.841,-37.454c-36.083,50.277 -72.272,54.978 -109.931,-0c39.438,45.531 72.694,40.772 109.931,-8.578c23.565,47.745 43.844,51.556 65.677,0c42.926,40.509 80.522,52.441 110.315,11.365c-28.914,50.451 -66.571,39.345 -108.635,-2.787c-10.617,24.861 -21.382,36.907 -32.179,37.441c0.659,2.292 1.35,4.505 2.072,6.635c6.257,16.584 16.694,19.69 31.84,24.946l31.45,0c14.612,-11.803 25.038,-16.1 37.759,-32.125c-8.841,21.471 -21.936,36.345 -37.759,43.975l-31.45,-0c-14.367,-2.628 -24.677,-15.673 -31.84,-36.796c-0.756,-2.004 -1.451,-4.206 -2.087,-6.635l-0.215,0.009l-0.087,0.003c-7.063,24.129 -19.211,38.781 -36.732,43.419l-28.536,-0c-19.609,-8.43 -31.633,-24.443 -40.139,-43.975c9.367,19.501 21.436,23.891 40.139,32.125l28.536,0c16.74,-4.51 28.818,-7.667 36.712,-31.568Zm-100.18,-106.924c10.786,10.197 21.865,15.347 33.092,15.42c11.228,0.072 22.604,-4.933 33.987,-15.045c-21.539,-19.742 -44.435,-17.79 -67.079,-0.375Zm134.558,-0c10.787,10.197 21.865,15.347 33.093,15.42c11.227,0.072 22.604,-4.933 33.986,-15.045c-21.539,-19.742 -44.434,-17.79 -67.079,-0.375Zm-8.58,-42.648c-2.233,9.331 7.307,13.633 12.564,3.873c14.011,-43.243 56.597,-48.476 79.359,0c4.429,9.432 14.501,8.745 12.786,-3.873c-29.201,-57.514 -82.847,-53.452 -104.709,-0Zm-49.574,-1.46c2.234,9.332 -7.307,13.633 -12.563,3.873c-14.012,-43.243 -56.597,-48.475 -79.36,0c-4.429,9.432 -14.501,8.745 -12.786,-3.873c29.202,-57.514 82.847,-53.451 104.709,0Z" style="stroke:#000;stroke-width:2.38px;stroke-linecap:round;stroke-linejoin:round;stroke-miterlimit:1.5;"/></g><g id="Bold-L"><path id="Black-L3" serif:id="Black-L" d="M9752.99,6067.78c151.317,-0 274.167,122.85 274.167,274.166c-0,151.317 -122.85,274.167 -274.167,274.167c-151.316,0 -274.166,-122.85 -274.166,-274.167c-0,-151.316 122.85,-274.166 274.166,-274.166Zm0.327,92.762c-2.255,0.002 -4.509,0.024 -6.761,0.062c-47.513,0.797 -93.611,8.745 -137.449,41.571l0,141.448c18.786,102.669 66.181,163.968 145.145,179.637l0.464,0.091c79.412,-28.44 127.651,-87.511 142.158,-179.728l-0,-141.448c-50.167,-33.869 -97.281,-41.622 -142.993,-41.633l-0.564,-0Zm1.084,233.645c-11.421,0.31 -22.875,-12.484 -34.216,-36.783c-35.437,49.376 -70.978,53.993 -107.962,-0c38.732,44.715 71.391,40.042 107.962,-8.424c23.143,46.89 43.058,50.632 64.501,-0c42.157,39.783 79.079,51.501 108.339,11.161c-28.396,49.548 -65.379,38.64 -106.69,-2.737c-10.426,24.416 -20.999,36.246 -31.602,36.77c0.647,2.252 1.325,4.425 2.035,6.517c6.145,16.287 16.395,19.337 31.27,24.499l30.886,0c14.351,-11.592 24.589,-15.812 37.083,-31.55c-8.683,21.087 -21.543,35.694 -37.083,43.187l-30.886,0c-14.11,-2.581 -24.236,-15.392 -31.27,-36.136c-0.743,-1.968 -1.426,-4.132 -2.05,-6.516l-0.211,0.009l-0.086,0.002c-6.936,23.697 -18.866,38.086 -36.074,42.641l-28.025,0c-19.257,-8.278 -31.066,-24.005 -39.42,-43.187c9.199,19.152 21.053,23.463 39.42,31.55l28.025,0c16.441,-4.43 28.302,-7.53 36.054,-31.003Zm-98.385,-105.009c10.593,10.015 21.473,15.072 32.5,15.144c11.026,0.071 22.199,-4.844 33.377,-14.775c-21.153,-19.389 -43.638,-17.472 -65.877,-0.369Zm132.148,-0c10.593,10.015 21.473,15.072 32.5,15.144c11.026,0.071 22.199,-4.844 33.378,-14.775c-21.154,-19.389 -43.639,-17.472 -65.878,-0.369Zm-8.426,-41.884c-2.193,9.164 7.176,13.389 12.338,3.804c13.761,-42.469 55.584,-47.608 77.938,-0c4.35,9.263 14.242,8.588 12.558,-3.804c-28.679,-56.484 -81.364,-52.494 -102.834,-0Zm-48.686,-1.434c2.193,9.165 -7.176,13.389 -12.338,3.804c-13.761,-42.468 -55.584,-47.607 -77.939,0c-4.349,9.263 -14.241,8.588 -12.557,-3.804c28.679,-56.483 81.363,-52.494 102.834,0Z" style="stroke:#000;stroke-width:2.33px;stroke-linecap:round;stroke-linejoin:round;stroke-miterlimit:1.5;"/></g><g id="Semibold-L"><path id="Black-L4" serif:id="Black-L" d="M8517.34,6061.16c149.477,0 270.833,121.357 270.833,270.834c0,149.477 -121.356,270.833 -270.833,270.833c-149.477,0 -270.833,-121.356 -270.833,-270.833c-0,-149.477 121.356,-270.834 270.833,-270.834Zm0.322,91.635c-2.226,0.002 -4.454,0.023 -6.678,0.061c-46.936,0.788 -92.473,8.639 -135.778,41.065l0,139.729c18.557,101.421 65.377,161.975 143.38,177.453l0.459,0.09c78.446,-28.094 126.099,-86.447 140.429,-177.543l-0,-139.729c-49.557,-33.457 -96.097,-41.115 -141.254,-41.127l-0.558,0.001Zm1.072,230.804c-11.282,0.307 -22.597,-12.332 -33.801,-36.336c-35.006,48.776 -70.114,53.337 -106.649,-0c38.261,44.172 70.524,39.556 106.649,-8.321c22.862,46.32 42.535,50.017 63.717,-0c41.645,39.3 78.118,50.875 107.022,11.025c-28.051,48.945 -64.584,38.171 -105.392,-2.704c-10.3,24.119 -20.744,35.806 -31.219,36.323c0.64,2.225 1.31,4.371 2.011,6.438c6.07,16.089 16.195,19.102 30.889,24.201l30.511,0c14.176,-11.451 24.29,-15.619 36.632,-31.166c-8.577,20.83 -21.281,35.26 -36.632,42.662l-30.511,-0c-13.938,-2.55 -23.94,-15.205 -30.889,-35.697c-0.734,-1.944 -1.409,-4.081 -2.025,-6.437l-0.209,0.009l-0.084,0.002c-6.852,23.409 -18.638,37.624 -35.636,42.123l-27.684,-0c-19.023,-8.178 -30.689,-23.714 -38.941,-42.662c9.087,18.919 20.797,23.178 38.941,31.166l27.684,0c16.241,-4.376 27.958,-7.438 35.616,-30.626Zm-97.189,-103.732c10.464,9.893 21.212,14.889 32.104,14.959c10.892,0.071 21.929,-4.785 32.972,-14.595c-20.896,-19.152 -43.108,-17.259 -65.076,-0.364Zm130.541,-0c10.465,9.893 21.212,14.889 32.105,14.959c10.892,0.071 21.929,-4.785 32.972,-14.595c-20.896,-19.152 -43.108,-17.259 -65.077,-0.364Zm-8.323,-41.375c-2.167,9.053 7.088,13.226 12.188,3.758c13.593,-41.953 54.907,-47.029 76.99,-0c4.297,9.15 14.069,8.483 12.405,-3.758c-28.33,-55.797 -80.374,-51.856 -101.583,-0Zm-48.095,-1.416c2.167,9.053 -7.089,13.226 -12.188,3.758c-13.594,-41.953 -54.908,-47.029 -76.991,-0c-4.296,9.15 -14.068,8.483 -12.404,-3.758c28.33,-55.797 80.374,-51.856 101.583,-0Z" style="stroke:#000;stroke-width:2.3px;stroke-linecap:round;stroke-linejoin:round;stroke-miterlimit:1.5;"/></g><g id="Medium-L"><path id="Black-L5" serif:id="Black-L" d="M7279.53,6067.13c148.097,0 268.333,120.237 268.333,268.334c0,148.097 -120.236,268.333 -268.333,268.333c-148.097,0 -268.333,-120.236 -268.333,-268.333c-0,-148.097 120.236,-268.334 268.333,-268.334Zm0.32,90.789c-2.207,0.002 -4.413,0.023 -6.617,0.06c-46.503,0.781 -91.62,8.56 -134.525,40.687l0,138.438c18.386,100.486 64.773,160.48 142.057,175.815l0.454,0.09c77.722,-27.835 124.935,-85.649 139.133,-175.905l-0,-138.438c-49.099,-33.148 -95.21,-40.736 -139.95,-40.747l-0.552,-0Zm1.061,228.674c-11.178,0.303 -22.389,-12.219 -33.489,-36.001c-34.682,48.326 -69.467,52.845 -105.664,-0c37.907,43.764 69.872,39.19 105.664,-8.245c22.652,45.893 42.143,49.556 63.129,0c41.26,38.938 77.397,50.406 106.034,10.924c-27.792,48.494 -63.988,37.818 -104.419,-2.679c-10.205,23.897 -20.553,35.475 -30.931,35.988c0.634,2.204 1.298,4.331 1.992,6.378c6.015,15.941 16.046,18.926 30.605,23.978l30.229,0c14.045,-11.345 24.066,-15.475 36.294,-30.878c-8.498,20.637 -21.085,34.934 -36.294,42.268l-30.229,-0c-13.81,-2.526 -23.72,-15.065 -30.605,-35.368c-0.727,-1.926 -1.395,-4.043 -2.006,-6.377l-0.207,0.008l-0.083,0.003c-6.789,23.192 -18.466,37.276 -35.307,41.734l-27.428,-0c-18.848,-8.103 -30.406,-23.495 -38.582,-42.268c9.003,18.744 20.605,22.964 38.582,30.878l27.428,0c16.091,-4.335 27.699,-7.369 35.287,-30.343Zm-96.292,-102.775c10.368,9.802 21.016,14.752 31.808,14.821c10.792,0.07 21.727,-4.741 32.668,-14.46c-20.704,-18.976 -42.71,-17.1 -64.476,-0.361Zm129.337,-0c10.367,9.802 21.016,14.752 31.808,14.821c10.792,0.07 21.727,-4.741 32.667,-14.46c-20.703,-18.976 -42.71,-17.1 -64.475,-0.361Zm-8.247,-40.993c-2.147,8.969 7.023,13.104 12.075,3.723c13.469,-41.565 54.401,-46.595 76.28,-0c4.257,9.066 13.939,8.405 12.291,-3.723c-28.069,-55.282 -79.633,-51.377 -100.646,-0Zm-47.651,-1.403c2.147,8.969 -7.023,13.104 -12.075,3.723c-13.469,-41.565 -54.401,-46.595 -76.28,-0c-4.257,9.066 -13.939,8.405 -12.291,-3.723c28.069,-55.282 79.633,-51.377 100.646,0Z" style="stroke:#000;stroke-width:2.28px;stroke-linecap:round;stroke-linejoin:round;stroke-miterlimit:1.5;"/></g><g id="Regular-L"><path id="Black-L6" serif:id="Black-L" d="M6041.88,6079.93c146.257,0 265,118.743 265,265c-0,146.258 -118.743,265 -265,265c-146.258,0 -265,-118.742 -265,-265c-0,-146.257 118.742,-265 265,-265Zm0.315,89.661c-2.179,0.002 -4.358,0.023 -6.534,0.06c-45.925,0.771 -90.481,8.453 -132.854,40.181l0,136.719c18.158,99.237 63.969,158.486 140.292,173.631l0.449,0.088c76.757,-27.489 123.383,-84.585 137.405,-173.719l-0,-136.719c-48.49,-32.737 -94.028,-40.23 -138.212,-40.241l-0.546,-0Zm1.049,225.833c-11.039,0.3 -22.111,-12.067 -33.073,-35.553c-34.252,47.725 -68.604,52.188 -104.352,-0c37.437,43.22 69.005,38.703 104.352,-8.142c22.37,45.322 41.619,48.939 62.345,-0c40.747,38.453 76.435,49.779 104.717,10.787c-27.447,47.892 -63.193,37.349 -103.123,-2.645c-10.078,23.6 -20.297,35.034 -30.546,35.541c0.626,2.176 1.281,4.276 1.967,6.298c5.94,15.743 15.847,18.691 30.224,23.681l29.854,-0c13.871,-11.205 23.767,-15.284 35.843,-30.495c-8.392,20.381 -20.823,34.5 -35.843,41.743l-29.854,-0c-13.638,-2.495 -23.425,-14.878 -30.224,-34.929c-0.718,-1.902 -1.378,-3.993 -1.981,-6.298l-0.204,0.009l-0.083,0.002c-6.704,22.905 -18.236,36.813 -34.868,41.216l-27.088,-0c-18.613,-8.002 -30.027,-23.203 -38.102,-41.743c8.892,18.511 20.349,22.678 38.102,30.495l27.088,-0c15.891,-4.282 27.355,-7.278 34.849,-29.967Zm-95.096,-101.498c10.239,9.68 20.755,14.569 31.413,14.637c10.658,0.069 21.457,-4.682 32.262,-14.28c-20.446,-18.741 -42.18,-16.888 -63.675,-0.357Zm127.73,-0c10.239,9.68 20.755,14.569 31.413,14.637c10.658,0.069 21.457,-4.682 32.262,-14.28c-20.446,-18.741 -42.18,-16.888 -63.675,-0.357Zm-8.145,-40.484c-2.12,8.858 6.937,12.942 11.926,3.677c13.301,-41.049 53.725,-46.016 75.332,0c4.205,8.953 13.766,8.301 12.138,-3.677c-27.72,-54.595 -78.643,-50.739 -99.396,0Zm-47.058,-1.385c2.12,8.858 -6.936,12.941 -11.926,3.677c-13.301,-41.049 -53.725,-46.016 -75.332,-0c-4.204,8.953 -13.765,8.301 -12.138,-3.677c27.72,-54.595 78.643,-50.739 99.396,-0Z" style="stroke:#000;stroke-width:2.25px;stroke-linecap:round;stroke-linejoin:round;stroke-miterlimit:1.5;"/></g><g id="Light-L"><path id="Black-L7" serif:id="Black-L" d="M4805.73,6076.81c144.073,0 261.042,116.969 261.042,261.042c-0,144.073 -116.969,261.042 -261.042,261.042c-144.073,-0 -261.042,-116.969 -261.042,-261.042c0,-144.073 116.969,-261.042 261.042,-261.042Zm0.311,88.322c-2.147,0.002 -4.293,0.022 -6.437,0.058c-45.239,0.76 -89.13,8.328 -130.869,39.581l-0,134.677c17.886,97.755 63.013,156.119 138.196,171.038l0.442,0.087c75.61,-27.079 121.54,-83.322 135.352,-171.125l0,-134.677c-47.765,-32.247 -92.623,-39.629 -136.147,-39.639l-0.537,-0Zm1.033,222.46c-10.874,0.295 -21.781,-11.887 -32.579,-35.023c-33.74,47.013 -67.579,51.409 -102.794,0c36.878,42.575 67.974,38.126 102.794,-8.02c22.036,44.645 40.997,48.208 61.413,-0c40.139,37.879 75.294,49.035 103.153,10.626c-27.037,47.176 -62.249,36.791 -101.582,-2.606c-9.927,23.248 -19.994,34.512 -30.09,35.01c0.617,2.144 1.262,4.213 1.938,6.205c5.851,15.507 15.61,18.412 29.773,23.327l29.407,-0c13.664,-11.037 23.413,-15.055 35.308,-30.04c-8.267,20.077 -20.512,33.985 -35.308,41.119l-29.407,0c-13.435,-2.457 -23.075,-14.655 -29.773,-34.406c-0.707,-1.874 -1.358,-3.933 -1.952,-6.204l-0.201,0.009l-0.081,0.002c-6.605,22.562 -17.964,36.263 -34.348,40.599l-26.683,0c-18.335,-7.882 -29.579,-22.855 -37.533,-41.119c8.759,18.235 20.045,22.34 37.533,30.04l26.683,-0c15.654,-4.218 26.947,-7.17 34.329,-29.519Zm-93.676,-99.982c10.086,9.535 20.445,14.351 30.944,14.418c10.498,0.068 21.136,-4.612 31.78,-14.067c-20.141,-18.46 -41.55,-16.636 -62.724,-0.351Zm125.822,-0c10.086,9.535 20.445,14.351 30.944,14.418c10.499,0.068 21.136,-4.612 31.78,-14.067c-20.141,-18.46 -41.55,-16.636 -62.724,-0.351Zm-8.023,-39.879c-2.088,8.725 6.833,12.747 11.748,3.621c13.102,-40.435 52.922,-45.328 74.207,0c4.141,8.82 13.56,8.177 11.956,-3.621c-27.306,-53.78 -77.468,-49.981 -97.911,-0Zm-46.355,-1.365c2.088,8.725 -6.833,12.748 -11.748,3.622c-13.102,-40.436 -52.922,-45.329 -74.207,-0c-4.141,8.819 -13.559,8.177 -11.956,-3.622c27.306,-53.78 77.468,-49.981 97.911,-0Z" style="stroke:#000;stroke-width:2.22px;stroke-linecap:round;stroke-linejoin:round;stroke-miterlimit:1.5;"/></g><g id="Thin-L"><path id="Black-L8" serif:id="Black-L" d="M3567.98,6078.71c141.313,-0 256.042,114.728 256.042,256.042c-0,141.313 -114.729,256.041 -256.042,256.041c-141.313,0 -256.042,-114.728 -256.042,-256.041c0,-141.314 114.729,-256.042 256.042,-256.042Zm0.305,86.63c-2.105,0.002 -4.211,0.022 -6.313,0.057c-44.373,0.745 -87.423,8.168 -128.363,38.823l-0,132.097c17.544,95.882 61.806,153.129 135.549,167.761l0.434,0.086c74.162,-26.56 119.212,-81.726 132.759,-167.847l0,-132.097c-46.85,-31.63 -90.849,-38.87 -133.539,-38.881l-0.527,0.001Zm1.013,218.198c-10.666,0.29 -21.363,-11.658 -31.955,-34.351c-33.094,46.112 -66.285,50.424 -100.824,-0c36.171,41.759 66.672,37.395 100.824,-7.867c21.614,43.79 40.212,47.285 60.237,-0c39.37,37.153 73.852,48.096 101.177,10.423c-26.519,46.272 -61.057,36.086 -99.636,-2.556c-9.737,22.802 -19.611,33.85 -29.514,34.339c0.605,2.103 1.238,4.133 1.901,6.086c5.739,15.21 15.311,18.059 29.202,22.88l28.845,-0c13.402,-10.826 22.964,-14.767 34.631,-29.464c-8.108,19.692 -20.119,33.334 -34.631,40.332l-28.845,-0c-13.177,-2.411 -22.633,-14.375 -29.202,-33.748c-0.694,-1.838 -1.332,-3.858 -1.914,-6.085l-0.198,0.008l-0.079,0.003c-6.478,22.13 -17.62,35.568 -33.69,39.822l-26.172,-0c-17.984,-7.732 -29.013,-22.419 -36.814,-40.332c8.591,17.885 19.661,21.912 36.814,29.464l26.172,-0c15.354,-4.137 26.431,-7.032 33.671,-28.954Zm-91.881,-98.067c9.893,9.353 20.053,14.077 30.351,14.143c10.297,0.067 20.731,-4.524 31.171,-13.798c-19.755,-18.107 -40.754,-16.317 -61.522,-0.345Zm123.412,0c9.893,9.353 20.053,14.077 30.351,14.143c10.297,0.067 20.731,-4.524 31.171,-13.798c-19.755,-18.107 -40.754,-16.317 -61.522,-0.345Zm-7.869,-39.115c-2.049,8.559 6.701,12.504 11.522,3.553c12.851,-39.661 51.909,-44.461 72.786,-0c4.062,8.65 13.3,8.02 11.727,-3.553c-26.783,-52.749 -75.985,-49.023 -96.035,0Zm-45.468,-1.338c2.048,8.558 -6.702,12.503 -11.523,3.552c-12.851,-39.661 -51.908,-44.46 -72.785,-0c-4.062,8.651 -13.3,8.02 -11.728,-3.552c26.783,-52.75 75.985,-49.024 96.036,-0Z" style="stroke:#000;stroke-width:2.18px;stroke-linecap:round;stroke-linejoin:round;stroke-miterlimit:1.5;"/></g><g id="Ultralight-L"><path id="Black-L9" serif:id="Black-L" d="M2330.62,6081.16c139.819,-0 253.334,113.515 253.334,253.333c-0,139.819 -113.515,253.334 -253.334,253.334c-139.818,-0 -253.333,-113.515 -253.333,-253.334c-0,-139.818 113.515,-253.333 253.333,-253.333Zm0.302,85.713c-2.083,0.003 -4.166,0.022 -6.247,0.057c-43.903,0.737 -86.498,8.082 -127.005,38.412l0,130.7c17.359,94.868 61.153,151.509 134.116,165.987l0.429,0.085c73.377,-26.279 117.951,-80.862 131.355,-166.072l0,-130.7c-46.355,-31.295 -89.888,-38.459 -132.127,-38.469l-0.521,0Zm1.002,215.891c-10.553,0.287 -21.137,-11.535 -31.617,-33.988c-32.744,45.625 -65.583,49.891 -99.758,-0c35.789,41.318 65.967,37 99.758,-7.784c21.385,43.327 39.787,46.785 59.6,0c38.954,36.761 73.071,47.588 100.107,10.313c-26.238,45.783 -60.411,35.704 -98.583,-2.529c-9.634,22.561 -19.403,33.492 -29.201,33.976c0.599,2.081 1.225,4.089 1.881,6.022c5.678,15.049 15.149,17.868 28.893,22.637l28.54,0c13.26,-10.711 22.721,-14.61 34.265,-29.152c-8.023,19.484 -19.906,32.982 -34.265,39.905l-28.54,0c-13.037,-2.385 -22.393,-14.222 -28.893,-33.39c-0.686,-1.819 -1.318,-3.818 -1.894,-6.021l-0.195,0.008l-0.079,0.002c-6.41,21.896 -17.433,35.193 -33.334,39.401l-25.895,0c-17.794,-7.649 -28.705,-22.181 -36.425,-39.905c8.501,17.696 19.453,21.68 36.425,29.152l25.895,0c15.192,-4.093 26.152,-6.957 33.315,-28.647Zm-90.909,-97.03c9.788,9.254 19.841,13.928 30.03,13.993c10.188,0.066 20.512,-4.475 30.841,-13.652c-19.546,-17.915 -40.322,-16.144 -60.871,-0.341Zm122.106,0c9.789,9.254 19.842,13.928 30.03,13.993c10.189,0.066 20.513,-4.475 30.842,-13.652c-19.546,-17.915 -40.323,-16.144 -60.872,-0.341Zm-7.785,-38.701c-2.027,8.468 6.63,12.372 11.4,3.515c12.715,-39.242 51.36,-43.99 72.016,-0c4.019,8.559 13.159,7.935 11.603,-3.515c-26.499,-52.192 -75.181,-48.505 -95.019,0Zm-44.987,-1.324c2.027,8.468 -6.631,12.371 -11.401,3.514c-12.715,-39.241 -51.36,-43.99 -72.016,0c-4.019,8.56 -13.159,7.936 -11.603,-3.514c26.5,-52.192 75.181,-48.506 95.02,-0Z" style="stroke:#000;stroke-width:2.16px;stroke-linecap:round;stroke-linejoin:round;stroke-miterlimit:1.5;"/></g><g id="Black-M"><path id="Black-L10" serif:id="Black-L" d="M12226.5,4320.98c123.491,-0 223.75,100.259 223.75,223.75c0,123.491 -100.259,223.75 -223.75,223.75c-123.491,-0 -223.75,-100.259 -223.75,-223.75c0,-123.491 100.259,-223.75 223.75,-223.75Zm0.267,75.704c-1.84,0.002 -3.68,0.019 -5.517,0.05c-38.777,0.651 -76.398,7.138 -112.174,33.926l-0,115.438c15.331,83.789 54.011,133.816 118.454,146.603l0.379,0.075c64.808,-23.21 104.177,-71.419 116.016,-146.678l-0,-115.438c-40.942,-27.64 -79.391,-33.968 -116.698,-33.977l-0.46,0.001Zm0.885,190.679c-9.321,0.254 -18.669,-10.188 -27.925,-30.019c-28.92,40.297 -57.925,44.065 -88.108,0c31.609,36.493 58.263,32.679 88.108,-6.874c18.888,38.267 35.141,41.321 52.64,-0c34.405,32.467 64.538,42.03 88.417,9.108c-23.174,40.437 -53.356,31.535 -87.071,-2.234c-8.509,19.927 -17.137,29.581 -25.791,30.009c0.529,1.838 1.082,3.611 1.661,5.318c5.015,13.292 13.38,15.782 25.52,19.994l25.206,0c11.712,-9.46 20.068,-12.904 30.264,-25.748c-7.086,17.209 -17.581,29.13 -30.264,35.245l-25.206,0c-11.515,-2.106 -19.779,-12.561 -25.52,-29.491c-0.606,-1.606 -1.163,-3.371 -1.673,-5.317l-0.172,0.007l-0.07,0.002c-5.661,19.339 -15.397,31.082 -29.44,34.799l-22.872,0c-15.716,-6.756 -25.353,-19.59 -32.171,-35.245c7.508,15.63 17.181,19.149 32.171,25.748l22.872,0c13.417,-3.615 23.097,-6.145 29.424,-25.302Zm-80.293,-85.698c8.645,8.173 17.524,12.3 26.523,12.359c8.999,0.058 18.117,-3.954 27.24,-12.058c-17.264,-15.823 -35.614,-14.259 -53.763,-0.301Zm107.847,-0c8.645,8.173 17.525,12.3 26.523,12.359c8.999,0.058 18.117,-3.954 27.24,-12.058c-17.263,-15.823 -35.614,-14.259 -53.763,-0.301Zm-6.877,-34.182c-1.79,7.479 5.857,10.926 10.07,3.104c11.23,-34.659 45.362,-38.853 63.606,-0c3.55,7.56 11.622,7.009 10.248,-3.104c-23.405,-46.097 -66.401,-42.841 -83.924,-0Zm-39.733,-1.17c1.79,7.479 -5.856,10.927 -10.069,3.104c-11.231,-34.659 -45.362,-38.853 -63.606,0c-3.55,7.56 -11.623,7.009 -10.249,-3.104c23.405,-46.097 66.402,-42.841 83.924,-0Z" style="stroke:#000;stroke-width:1.9px;stroke-linecap:round;stroke-linejoin:round;stroke-miterlimit:1.5;"/></g><g id="Heavy-M"><path id="Black-L11" serif:id="Black-L" d="M10984,4322.62c121.307,-0 219.792,98.485 219.792,219.791c-0,121.307 -98.485,219.792 -219.792,219.792c-121.306,-0 -219.791,-98.485 -219.791,-219.792c-0,-121.306 98.485,-219.791 219.791,-219.791Zm0.262,74.364c-1.807,0.002 -3.615,0.019 -5.42,0.05c-38.09,0.639 -75.045,7.011 -110.189,33.326l0,113.395c15.06,82.307 53.056,131.449 116.359,144.01l0.372,0.073c63.662,-22.799 102.334,-70.155 113.963,-144.083l0,-113.395c-40.217,-27.152 -77.986,-33.367 -114.633,-33.376l-0.452,0Zm0.87,187.307c-9.156,0.249 -18.339,-10.008 -27.431,-29.488c-28.409,39.584 -56.901,43.285 -86.55,-0c31.05,35.847 57.233,32.101 86.55,-6.753c18.553,37.59 34.519,40.59 51.709,-0c33.796,31.893 63.396,41.287 86.852,8.947c-22.764,39.721 -52.412,30.977 -85.53,-2.194c-8.358,19.574 -16.834,29.058 -25.335,29.478c0.519,1.805 1.063,3.547 1.632,5.224c4.926,13.057 13.143,15.502 25.068,19.64l24.76,0c11.505,-9.293 19.713,-12.676 29.729,-25.292c-6.961,16.904 -17.271,28.614 -29.729,34.621l-24.76,0c-11.312,-2.069 -19.429,-12.339 -25.068,-28.969c-0.596,-1.578 -1.143,-3.312 -1.644,-5.224l-0.169,0.007l-0.068,0.002c-5.561,18.997 -15.125,30.533 -28.92,34.184l-22.467,0c-15.438,-6.636 -24.905,-19.244 -31.602,-34.621c7.375,15.353 16.877,18.809 31.602,25.292l22.467,0c13.18,-3.551 22.688,-6.036 28.904,-24.854Zm-78.873,-84.183c8.492,8.029 17.214,12.083 26.054,12.14c8.839,0.058 17.796,-3.883 26.758,-11.844c-16.958,-15.543 -34.984,-14.007 -52.812,-0.296Zm105.939,0c8.493,8.029 17.215,12.083 26.054,12.14c8.84,0.058 17.797,-3.883 26.758,-11.844c-16.958,-15.543 -34.984,-14.007 -52.812,-0.296Zm-6.755,-33.577c-1.758,7.347 5.753,10.733 9.891,3.049c11.032,-34.046 44.56,-38.165 62.481,0c3.487,7.426 11.417,6.885 10.067,-3.049c-22.991,-45.282 -65.227,-42.083 -82.439,-0Zm-39.03,-1.149c1.758,7.347 -5.753,10.733 -9.891,3.049c-11.032,-34.046 -44.56,-38.165 -62.481,0c-3.487,7.426 -11.417,6.885 -10.067,-3.049c22.991,-45.282 65.227,-42.083 82.439,-0Z" style="stroke:#000;stroke-width:1.87px;stroke-linecap:round;stroke-linejoin:round;stroke-miterlimit:1.5;"/></g><g id="Bold-M"><path id="Black-L12" serif:id="Black-L" d="M9748.2,4328.72c119.007,-0 215.625,96.618 215.625,215.625c0,119.007 -96.618,215.625 -215.625,215.625c-119.007,-0 -215.625,-96.618 -215.625,-215.625c0,-119.007 96.618,-215.625 215.625,-215.625Zm0.257,72.955c-1.773,0.002 -3.546,0.019 -5.317,0.048c-37.368,0.628 -73.623,6.879 -108.1,32.695l-0,111.245c14.774,80.747 52.05,128.957 114.152,141.28l0.365,0.072c62.456,-22.367 100.394,-68.825 111.804,-141.352l-0,-111.245c-39.455,-26.637 -76.509,-32.734 -112.46,-32.743l-0.444,-0Zm0.853,183.756c-8.982,0.244 -17.991,-9.819 -26.911,-28.929c-27.87,38.833 -55.821,42.464 -84.909,-0c30.462,35.167 56.148,31.492 84.909,-6.625c18.202,36.877 33.865,39.821 50.729,-0c33.155,31.288 62.194,40.504 85.206,8.777c-22.333,38.968 -51.419,30.39 -83.909,-2.152c-8.2,19.202 -16.515,28.507 -24.854,28.919c0.509,1.771 1.042,3.479 1.6,5.125c4.833,12.809 12.894,15.208 24.593,19.268l24.291,-0c11.287,-9.117 19.339,-12.436 29.165,-24.813c-6.829,16.584 -16.943,28.072 -29.165,33.965l-24.291,0c-11.097,-2.03 -19.061,-12.105 -24.593,-28.42c-0.584,-1.548 -1.121,-3.249 -1.612,-5.125l-0.166,0.007l-0.067,0.002c-5.456,18.637 -14.839,29.954 -28.372,33.536l-22.041,0c-15.145,-6.511 -24.433,-18.879 -31.003,-33.965c7.235,15.062 16.558,18.453 31.003,24.813l22.041,-0c12.93,-3.484 22.259,-5.922 28.356,-24.383Zm-77.378,-82.587c8.332,7.876 16.888,11.854 25.56,11.91c8.672,0.056 17.459,-3.81 26.251,-11.62c-16.636,-15.248 -34.32,-13.741 -51.811,-0.29Zm103.932,-0c8.331,7.876 16.888,11.854 25.56,11.91c8.672,0.056 17.459,-3.81 26.25,-11.62c-16.636,-15.248 -34.32,-13.741 -51.81,-0.29Zm-6.627,-32.941c-1.726,7.208 5.643,10.53 9.703,2.992c10.823,-33.401 43.715,-37.442 61.297,-0c3.42,7.285 11.2,6.754 9.876,-2.992c-22.555,-44.423 -63.991,-41.285 -80.876,0Zm-38.291,-1.127c1.725,7.207 -5.644,10.53 -9.704,2.991c-10.822,-33.4 -43.714,-37.442 -61.296,0c-3.421,7.286 -11.2,6.755 -9.876,-2.991c22.555,-44.423 63.99,-41.285 80.876,-0Z" style="stroke:#000;stroke-width:1.83px;stroke-linecap:round;stroke-linejoin:round;stroke-miterlimit:1.5;"/></g><g id="Semibold-M"><path id="Black-L13" serif:id="Black-L" d="M8513.99,4331.36c117.397,-0 212.708,95.311 212.708,212.708c0,117.397 -95.311,212.708 -212.708,212.708c-117.397,0 -212.708,-95.311 -212.708,-212.708c-0,-117.397 95.311,-212.708 212.708,-212.708Zm0.253,71.968c-1.749,0.002 -3.498,0.018 -5.244,0.048c-36.863,0.618 -72.628,6.785 -106.639,32.252l0,109.741c14.575,79.654 51.346,127.212 112.609,139.368l0.36,0.071c61.61,-22.064 99.036,-67.894 110.291,-139.439l-0,-109.741c-38.921,-26.277 -75.474,-32.292 -110.939,-32.3l-0.438,-0Zm0.842,181.27c-8.861,0.241 -17.748,-9.686 -26.547,-28.538c-27.493,38.308 -55.066,41.891 -83.76,0c30.049,34.692 55.388,31.067 83.76,-6.535c17.956,36.379 33.407,39.282 50.043,-0c32.707,30.865 61.352,39.956 84.053,8.659c-22.031,38.441 -50.723,29.979 -82.774,-2.124c-8.089,18.943 -16.291,28.122 -24.518,28.528c0.502,1.747 1.028,3.433 1.579,5.056c4.767,12.636 12.72,15.003 24.26,19.007l23.963,0c11.134,-8.993 19.077,-12.267 28.77,-24.477c-6.736,16.359 -16.714,27.693 -28.77,33.506l-23.963,-0c-10.947,-2.002 -18.803,-11.942 -24.26,-28.036c-0.576,-1.527 -1.106,-3.205 -1.59,-5.055l-0.164,0.006l-0.067,0.002c-5.381,18.385 -14.637,29.549 -27.987,33.083l-21.743,-0c-14.94,-6.423 -24.102,-18.624 -30.584,-33.506c7.137,14.858 16.334,18.203 30.584,24.477l21.743,0c12.755,-3.436 21.957,-5.841 27.972,-24.053Zm-76.331,-81.47c8.218,7.77 16.66,11.694 25.214,11.749c8.555,0.056 17.223,-3.758 25.896,-11.463c-16.412,-15.042 -33.856,-13.555 -51.11,-0.286Zm102.525,0c8.219,7.77 16.66,11.694 25.215,11.749c8.554,0.056 17.223,-3.758 25.895,-11.463c-16.411,-15.042 -33.856,-13.555 -51.11,-0.286Zm-6.537,-32.495c-1.702,7.11 5.567,10.388 9.572,2.951c10.677,-32.949 43.124,-36.935 60.468,0c3.374,7.187 11.049,6.663 9.742,-2.951c-22.25,-43.822 -63.125,-40.727 -79.782,0Zm-37.773,-1.112c1.702,7.11 -5.567,10.388 -9.572,2.951c-10.676,-32.949 -43.124,-36.936 -60.467,0c-3.375,7.187 -11.049,6.663 -9.743,-2.951c22.25,-43.822 63.125,-40.727 79.782,-0Z" style="stroke:#000;stroke-width:1.81px;stroke-linecap:round;stroke-linejoin:round;stroke-miterlimit:1.5;"/></g><g id="Medium-M"><path id="Black-L14" serif:id="Black-L" d="M7276.07,4335.97c116.132,0 210.416,94.285 210.416,210.417c0,116.132 -94.284,210.417 -210.416,210.417c-116.132,-0 -210.417,-94.285 -210.417,-210.417c0,-116.132 94.285,-210.417 210.417,-210.417Zm0.25,71.193c-1.73,0.002 -3.46,0.018 -5.188,0.047c-36.466,0.612 -71.845,6.713 -105.489,31.905l-0,108.558c14.417,78.797 50.792,125.842 111.395,137.868l0.356,0.07c60.947,-21.827 97.969,-67.163 109.103,-137.938l-0,-108.558c-38.502,-25.993 -74.66,-31.944 -109.744,-31.952l-0.433,0Zm0.833,179.317c-8.766,0.238 -17.557,-9.581 -26.261,-28.23c-27.197,37.895 -54.473,41.439 -82.858,-0c29.726,34.318 54.791,30.732 82.858,-6.465c17.762,35.987 33.047,38.859 49.503,-0c32.355,30.533 60.692,39.526 83.148,8.566c-21.793,38.026 -50.177,29.655 -81.882,-2.101c-8.002,18.739 -16.116,27.818 -24.254,28.22c0.497,1.728 1.017,3.396 1.562,5.002c4.716,12.5 12.583,14.841 23.999,18.802l23.704,0c11.014,-8.896 18.872,-12.135 28.461,-24.213c-6.664,16.183 -16.534,27.394 -28.461,33.145l-23.704,-0c-10.829,-1.981 -18.6,-11.814 -23.999,-27.734c-0.57,-1.511 -1.094,-3.171 -1.573,-5.001l-0.162,0.007l-0.066,0.002c-5.323,18.186 -14.48,29.23 -27.686,32.726l-21.508,-0c-14.78,-6.354 -23.843,-18.424 -30.255,-33.145c7.061,14.698 16.158,18.007 30.255,24.213l21.508,0c12.618,-3.399 21.721,-5.778 27.671,-23.794Zm-75.509,-80.592c8.13,7.686 16.48,11.568 24.943,11.623c8.462,0.054 17.037,-3.718 25.617,-11.34c-16.235,-14.88 -33.492,-13.409 -50.56,-0.283Zm101.421,0c8.13,7.686 16.48,11.568 24.943,11.623c8.462,0.054 17.037,-3.718 25.616,-11.34c-16.234,-14.88 -33.491,-13.409 -50.559,-0.283Zm-6.467,-32.145c-1.683,7.034 5.508,10.276 9.469,2.919c10.562,-32.593 42.659,-36.537 59.816,0c3.338,7.11 10.93,6.592 9.638,-2.919c-22.011,-43.35 -62.445,-40.288 -78.923,0Zm-37.366,-1.1c1.684,7.033 -5.507,10.276 -9.469,2.919c-10.561,-32.593 -42.659,-36.537 -59.816,0c-3.338,7.11 -10.93,6.592 -9.637,-2.919c22.01,-43.35 62.444,-40.288 78.922,-0Z" style="stroke:#000;stroke-width:1.79px;stroke-linecap:round;stroke-linejoin:round;stroke-miterlimit:1.5;"/></g><g id="Regular-M"><path id="Black-L15" serif:id="Black-L" d="M6036.57,4342.06c114.522,0 207.5,92.978 207.5,207.5c-0,114.522 -92.978,207.5 -207.5,207.5c-114.523,0 -207.5,-92.978 -207.5,-207.5c-0,-114.522 92.977,-207.5 207.5,-207.5Zm0.247,70.206c-1.706,0.002 -3.413,0.018 -5.117,0.047c-35.96,0.603 -70.848,6.619 -104.027,31.462l0,107.054c14.218,77.704 50.089,124.097 109.852,135.956l0.351,0.069c60.102,-21.524 96.611,-66.231 107.59,-136.025l0,-107.054c-37.968,-25.633 -73.625,-31.501 -108.222,-31.509l-0.427,0Zm0.821,176.832c-8.644,0.235 -17.313,-9.449 -25.897,-27.839c-26.82,37.37 -53.718,40.864 -81.71,-0c29.314,33.842 54.032,30.305 81.71,-6.376c17.516,35.488 32.589,38.321 48.817,0c31.906,30.11 59.851,38.978 81.995,8.447c-21.491,37.5 -49.481,29.245 -80.747,-2.071c-7.891,18.479 -15.892,27.432 -23.918,27.829c0.491,1.704 1.004,3.349 1.541,4.932c4.651,12.327 12.408,14.635 23.666,18.542l23.376,0c10.861,-8.773 18.61,-11.967 28.066,-23.878c-6.572,15.959 -16.305,27.014 -28.066,32.685l-23.376,0c-10.679,-1.953 -18.342,-11.649 -23.666,-27.349c-0.562,-1.489 -1.079,-3.127 -1.552,-4.931l-0.159,0.006l-0.065,0.002c-5.25,17.934 -14.279,28.825 -27.303,32.272l-21.21,0c-14.575,-6.265 -23.512,-18.168 -29.835,-32.685c6.963,14.494 15.934,17.758 29.835,23.878l21.21,0c12.443,-3.353 21.42,-5.699 27.288,-23.464Zm-74.462,-79.475c8.017,7.579 16.251,11.407 24.597,11.461c8.345,0.054 16.801,-3.666 25.261,-11.182c-16.009,-14.674 -33.027,-13.223 -49.858,-0.279Zm100.015,-0c8.017,7.579 16.251,11.407 24.597,11.461c8.345,0.054 16.801,-3.666 25.261,-11.182c-16.009,-14.674 -33.027,-13.223 -49.858,-0.279Zm-6.377,-31.7c-1.661,6.936 5.431,10.133 9.337,2.879c10.415,-32.142 42.068,-36.031 58.987,0c3.292,7.011 10.779,6.5 9.504,-2.879c-21.705,-42.749 -61.579,-39.729 -77.828,0Zm-36.848,-1.085c1.66,6.936 -5.431,10.134 -9.338,2.879c-10.415,-32.142 -42.068,-36.031 -58.987,0c-3.292,7.011 -10.778,6.5 -9.504,-2.879c21.705,-42.749 61.579,-39.729 77.829,0Z" style="stroke:#000;stroke-width:1.77px;stroke-linecap:round;stroke-linejoin:round;stroke-miterlimit:1.5;"/></g><g id="Light-M"><path id="Black-L16" serif:id="Black-L" d="M4802.76,4335.01c112.568,0 203.959,91.391 203.959,203.958c-0,112.568 -91.391,203.959 -203.959,203.959c-112.567,-0 -203.958,-91.391 -203.958,-203.959c0,-112.567 91.391,-203.958 203.958,-203.958Zm0.243,69.008c-1.677,0.002 -3.354,0.017 -5.029,0.046c-35.346,0.593 -69.639,6.506 -102.251,30.925l-0,105.226c13.975,76.379 49.233,121.98 107.976,133.636l0.345,0.068c59.076,-21.157 94.962,-65.101 105.754,-133.704l0,-105.226c-37.32,-25.196 -72.369,-30.963 -106.375,-30.971l-0.42,-0Zm0.807,173.813c-8.496,0.231 -17.017,-9.287 -25.454,-27.364c-26.363,36.733 -52.802,40.167 -80.316,0c28.814,33.265 53.11,29.789 80.316,-6.266c17.216,34.882 32.032,37.666 47.983,-0c31.362,29.596 58.829,38.313 80.596,8.302c-21.124,36.86 -48.637,28.746 -79.369,-2.036c-7.756,18.164 -15.621,26.965 -23.509,27.355c0.481,1.675 0.986,3.291 1.514,4.847c4.571,12.117 12.196,14.386 23.262,18.226l22.977,0c10.675,-8.623 18.292,-11.763 27.586,-23.471c-6.459,15.687 -16.026,26.554 -27.586,32.128l-22.977,0c-10.497,-1.92 -18.029,-11.451 -23.262,-26.883c-0.553,-1.464 -1.061,-3.073 -1.525,-4.847l-0.157,0.007l-0.064,0.002c-5.16,17.628 -14.035,28.333 -26.837,31.721l-20.848,0c-14.326,-6.158 -23.111,-17.858 -29.325,-32.128c6.843,14.248 15.661,17.455 29.325,23.471l20.848,0c12.231,-3.295 21.055,-5.601 26.822,-23.064Zm-73.191,-78.118c7.881,7.45 15.974,11.212 24.177,11.265c8.203,0.053 16.515,-3.603 24.831,-10.991c-15.737,-14.423 -32.464,-12.997 -49.008,-0.274Zm98.308,-0c7.88,7.45 15.974,11.212 24.177,11.265c8.203,0.053 16.515,-3.603 24.831,-10.991c-15.737,-14.423 -32.464,-12.997 -49.008,-0.274Zm-6.268,-31.159c-1.632,6.818 5.338,9.961 9.178,2.83c10.237,-31.593 41.35,-35.416 57.98,0c3.236,6.891 10.594,6.389 9.342,-2.83c-21.335,-42.019 -60.528,-39.051 -76.5,0Zm-36.219,-1.066c1.632,6.817 -5.339,9.96 -9.179,2.83c-10.237,-31.594 -41.349,-35.417 -57.98,-0c-3.235,6.891 -10.594,6.389 -9.341,-2.83c21.334,-42.02 60.528,-39.052 76.5,-0Z" style="stroke:#000;stroke-width:1.74px;stroke-linecap:round;stroke-linejoin:round;stroke-miterlimit:1.5;"/></g><g id="Thin-M"><path id="Black-L17" serif:id="Black-L" d="M3568.91,4344.43c110.154,0 199.584,89.431 199.584,199.584c-0,110.153 -89.43,199.583 -199.584,199.583c-110.153,-0 -199.583,-89.43 -199.583,-199.583c0,-110.153 89.43,-199.584 199.583,-199.584Zm0.238,67.528c-1.641,0.002 -3.282,0.017 -4.921,0.045c-34.588,0.58 -68.146,6.366 -100.058,30.262l-0,102.969c13.675,74.74 48.177,119.363 105.66,130.769l0.338,0.067c57.809,-20.704 92.925,-63.705 103.485,-130.836l0,-102.969c-36.519,-24.656 -70.816,-30.299 -104.093,-30.308l-0.411,0.001Zm0.79,170.085c-8.314,0.226 -16.653,-9.088 -24.909,-26.777c-25.797,35.944 -51.669,39.305 -78.592,-0c28.195,32.551 51.97,29.149 78.592,-6.132c16.848,34.134 31.345,36.858 46.955,-0c30.688,28.961 57.567,37.491 78.867,8.124c-20.672,36.069 -47.594,28.129 -77.667,-1.992c-7.59,17.774 -15.286,26.386 -23.005,26.767c0.471,1.639 0.965,3.221 1.481,4.744c4.474,11.857 11.935,14.077 22.764,17.835l22.484,-0c10.446,-8.439 17.9,-11.511 26.995,-22.967c-6.321,15.35 -15.683,25.984 -26.995,31.438l-22.484,0c-10.272,-1.879 -17.643,-11.205 -22.764,-26.306c-0.54,-1.432 -1.038,-3.007 -1.492,-4.743l-0.153,0.006l-0.063,0.002c-5.049,17.25 -13.734,27.726 -26.261,31.041l-20.4,0c-14.019,-6.026 -22.616,-17.475 -28.697,-31.438c6.697,13.941 15.325,17.08 28.697,22.967l20.4,-0c11.969,-3.225 20.603,-5.481 26.247,-22.569Zm-71.621,-76.443c7.711,7.29 15.631,10.972 23.658,11.024c8.027,0.052 16.16,-3.526 24.298,-10.756c-15.399,-14.114 -31.767,-12.718 -47.956,-0.268Zm96.199,-0c7.711,7.29 15.632,10.972 23.658,11.024c8.027,0.052 16.161,-3.526 24.298,-10.756c-15.399,-14.114 -31.767,-12.718 -47.956,-0.268Zm-6.134,-30.49c-1.597,6.671 5.224,9.746 8.982,2.769c10.017,-30.916 40.462,-34.657 56.736,-0c3.166,6.743 10.367,6.252 9.141,-2.769c-20.877,-41.118 -59.23,-38.214 -74.859,-0Zm-35.442,-1.044c1.597,6.672 -5.224,9.747 -8.982,2.769c-10.017,-30.915 -40.462,-34.656 -56.736,0c-3.166,6.744 -10.367,6.252 -9.141,-2.769c20.877,-41.118 59.229,-38.213 74.859,0Z" style="stroke:#000;stroke-width:1.7px;stroke-linecap:round;stroke-linejoin:round;stroke-miterlimit:1.5;"/></g><g id="Ultralight-M"><path id="Black-L18" serif:id="Black-L" d="M2334.28,4344.14c108.774,0 197.084,88.31 197.084,197.084c-0,108.773 -88.31,197.083 -197.084,197.083c-108.773,0 -197.083,-88.31 -197.083,-197.083c0,-108.774 88.31,-197.084 197.083,-197.084Zm0.235,66.682c-1.62,0.002 -3.241,0.017 -4.859,0.044c-34.156,0.574 -67.293,6.287 -98.805,29.883l-0,101.68c13.504,73.803 47.574,117.868 104.336,129.131l0.334,0.066c57.085,-20.444 91.761,-62.907 102.189,-129.197l0,-101.68c-36.062,-24.346 -69.929,-29.919 -102.789,-29.927l-0.406,-0Zm0.78,167.954c-8.21,0.224 -16.444,-8.974 -24.597,-26.441c-25.473,35.494 -51.021,38.813 -77.608,-0c27.843,32.144 51.32,28.784 77.608,-6.055c16.637,33.706 30.953,36.397 46.367,-0c30.304,28.598 56.846,37.021 77.879,8.023c-20.413,35.617 -46.998,27.776 -76.694,-1.968c-7.495,17.552 -15.095,26.056 -22.717,26.432c0.465,1.619 0.953,3.181 1.463,4.685c4.417,11.708 11.785,13.9 22.478,17.611l22.202,-0c10.316,-8.333 17.676,-11.366 26.657,-22.68c-6.241,15.158 -15.486,25.659 -26.657,31.045l-22.202,0c-10.143,-1.855 -17.421,-11.064 -22.478,-25.976c-0.534,-1.415 -1.025,-2.97 -1.474,-4.684l-0.151,0.006l-0.062,0.002c-4.986,17.034 -13.562,27.378 -25.932,30.652l-20.145,0c-13.843,-5.951 -22.332,-17.256 -28.337,-31.045c6.613,13.767 15.133,16.867 28.337,22.68l20.145,-0c11.819,-3.184 20.345,-5.413 25.918,-22.287Zm-70.724,-75.485c7.615,7.199 15.436,10.835 23.362,10.886c7.926,0.051 15.958,-3.482 23.994,-10.621c-15.206,-13.937 -31.37,-12.559 -47.356,-0.265Zm94.994,0c7.615,7.199 15.436,10.835 23.362,10.886c7.927,0.051 15.958,-3.482 23.994,-10.621c-15.206,-13.937 -31.37,-12.559 -47.356,-0.265Zm-6.057,-30.108c-1.577,6.588 5.158,9.625 8.869,2.735c9.892,-30.529 39.956,-34.223 56.026,-0c3.126,6.658 10.237,6.173 9.026,-2.735c-20.615,-40.603 -58.487,-37.735 -73.921,0Zm-34.998,-1.03c1.577,6.587 -5.158,9.624 -8.869,2.734c-9.892,-30.528 -39.956,-34.222 -56.026,0c-3.126,6.659 -10.237,6.174 -9.027,-2.734c20.616,-40.603 58.488,-37.735 73.922,-0Z" style="stroke:#000;stroke-width:1.68px;stroke-linecap:round;stroke-linejoin:round;stroke-miterlimit:1.5;"/></g><g id="Black-S"><path id="Black-L19" serif:id="Black-L" d="M12227.4,2573.97c96.585,-0 175,78.415 175,175c-0,96.585 -78.415,175 -175,175c-96.586,-0 -175,-78.415 -175,-175c-0,-96.585 78.414,-175 175,-175Zm0.208,59.21c-1.439,0.001 -2.878,0.015 -4.315,0.039c-30.328,0.509 -59.752,5.582 -87.734,26.535l0,90.286c11.991,65.533 42.244,104.66 92.646,114.662l0.296,0.058c50.688,-18.153 81.479,-55.858 90.739,-114.72l-0,-90.286c-32.021,-21.619 -62.094,-26.567 -91.272,-26.575l-0.36,0.001Zm0.692,149.135c-7.29,0.198 -14.601,-7.969 -21.84,-23.479c-22.619,31.517 -45.305,34.464 -68.912,-0c24.722,28.542 45.569,25.559 68.912,-5.377c14.772,29.93 27.484,32.319 41.171,0c26.909,25.394 50.476,32.873 69.152,7.124c-18.125,31.626 -41.731,24.664 -68.099,-1.747c-6.656,15.585 -13.404,23.136 -20.172,23.47c0.413,1.438 0.846,2.825 1.299,4.16c3.922,10.396 10.465,12.343 19.959,15.638l19.715,-0c9.16,-7.399 15.695,-10.093 23.67,-20.138c-5.542,13.459 -13.751,22.783 -23.67,27.566l-19.715,-0c-9.006,-1.648 -15.469,-9.825 -19.959,-23.066c-0.474,-1.256 -0.91,-2.637 -1.309,-4.159l-0.134,0.006l-0.055,0.001c-4.427,15.126 -12.043,24.311 -23.026,27.218l-17.888,-0c-12.292,-5.284 -19.83,-15.323 -25.162,-27.566c5.872,12.224 13.438,14.976 25.162,20.138l17.888,-0c10.494,-2.828 18.065,-4.806 23.013,-19.789Zm-62.799,-67.027c6.762,6.392 13.706,9.62 20.744,9.666c7.039,0.045 14.17,-3.092 21.305,-9.431c-13.502,-12.375 -27.854,-11.152 -42.049,-0.235Zm84.35,-0c6.762,6.392 13.706,9.62 20.744,9.666c7.039,0.045 14.17,-3.092 21.305,-9.431c-13.502,-12.375 -27.854,-11.152 -42.049,-0.235Zm-5.378,-26.735c-1.4,5.85 4.58,8.546 7.875,2.428c8.784,-27.108 35.479,-30.388 49.748,0c2.776,5.913 9.09,5.482 8.015,-2.428c-18.305,-36.053 -51.934,-33.507 -65.638,0Zm-31.077,-0.915c1.4,5.85 -4.58,8.546 -7.875,2.428c-8.784,-27.108 -35.479,-30.388 -49.748,0c-2.776,5.913 -9.09,5.482 -8.015,-2.428c18.305,-36.053 51.934,-33.507 65.638,0Z" style="stroke:#000;stroke-width:1.49px;stroke-linecap:round;stroke-linejoin:round;stroke-miterlimit:1.5;"/></g><g id="Heavy-S"><path id="Black-L20" serif:id="Black-L" d="M10988.3,2576.65c95.205,0 172.5,77.295 172.5,172.5c-0,95.206 -77.295,172.5 -172.5,172.5c-95.206,0 -172.5,-77.294 -172.5,-172.5c-0,-95.205 77.294,-172.5 172.5,-172.5Zm0.205,58.364c-1.418,0.002 -2.837,0.015 -4.253,0.039c-29.895,0.502 -58.899,5.503 -86.481,26.156l0,88.996c11.82,64.598 41.64,103.166 91.323,113.024l0.291,0.058c49.965,-17.894 80.316,-55.061 89.443,-113.082l0,-88.996c-31.564,-21.31 -61.207,-26.188 -89.968,-26.195l-0.355,0Zm0.683,147.005c-7.186,0.195 -14.393,-7.855 -21.529,-23.143c-22.296,31.066 -44.657,33.971 -67.927,-0c24.369,28.134 44.918,25.194 67.927,-5.3c14.561,29.502 27.092,31.856 40.583,-0c26.524,25.031 49.755,32.403 68.165,7.022c-17.867,31.174 -41.136,24.312 -67.127,-1.722c-6.56,15.362 -13.212,22.805 -19.884,23.135c0.407,1.417 0.834,2.784 1.28,4.1c3.867,10.247 10.316,12.167 19.675,15.414l19.433,0c9.029,-7.293 15.471,-9.948 23.332,-19.85c-5.463,13.267 -13.555,22.458 -23.332,27.172l-19.433,0c-8.878,-1.624 -15.249,-9.684 -19.675,-22.736c-0.467,-1.238 -0.897,-2.599 -1.289,-4.1l-0.133,0.006l-0.054,0.001c-4.364,14.91 -11.87,23.964 -22.697,26.829l-17.633,0c-12.116,-5.208 -19.546,-15.103 -24.802,-27.172c5.788,12.05 13.246,14.762 24.802,19.85l17.633,0c10.344,-2.787 17.807,-4.737 22.685,-19.506Zm-61.903,-66.07c6.665,6.302 13.511,9.484 20.449,9.529c6.937,0.044 13.967,-3.048 21,-9.297c-13.309,-12.198 -27.456,-10.992 -41.449,-0.232Zm83.145,0c6.665,6.302 13.511,9.484 20.449,9.529c6.937,0.044 13.967,-3.048 21,-9.297c-13.309,-12.198 -27.456,-10.992 -41.449,-0.232Zm-5.301,-26.352c-1.38,5.766 4.515,8.424 7.763,2.393c8.658,-26.72 34.972,-29.954 49.037,0c2.737,5.828 8.96,5.404 7.901,-2.393c-18.044,-35.539 -51.192,-33.028 -64.701,-0Zm-30.633,-0.902c1.38,5.766 -4.515,8.424 -7.763,2.393c-8.658,-26.72 -34.971,-29.953 -49.037,0c-2.736,5.828 -8.96,5.404 -7.9,-2.393c18.044,-35.538 51.192,-33.028 64.7,-0Z" style="stroke:#000;stroke-width:1.47px;stroke-linecap:round;stroke-linejoin:round;stroke-miterlimit:1.5;"/></g><g id="Bold-S"><path id="Black-L21" serif:id="Black-L" d="M9748.98,2580.05c93.595,0 169.583,75.988 169.583,169.584c0,93.595 -75.988,169.583 -169.583,169.583c-93.596,-0 -169.584,-75.988 -169.584,-169.583c0,-93.596 75.988,-169.584 169.584,-169.584Zm0.202,57.377c-1.395,0.002 -2.789,0.015 -4.182,0.038c-29.389,0.494 -57.902,5.41 -85.018,25.714l0,87.491c11.62,63.506 40.936,101.422 89.778,111.113l0.287,0.057c49.12,-17.591 78.957,-54.129 87.93,-111.17l0,-87.491c-31.03,-20.949 -60.171,-25.745 -88.446,-25.752l-0.349,0Zm0.671,144.519c-7.065,0.192 -14.15,-7.722 -21.165,-22.752c-21.919,30.542 -43.902,33.398 -66.779,0c23.957,27.659 44.159,24.768 66.779,-5.21c14.315,29.003 26.634,31.318 39.897,-0c26.076,24.608 48.914,31.856 67.012,6.903c-17.564,30.648 -40.44,23.901 -65.992,-1.693c-6.449,15.103 -12.989,22.42 -19.547,22.744c0.4,1.393 0.819,2.737 1.258,4.031c3.801,10.074 10.141,11.961 19.342,15.154l19.104,0c8.877,-7.17 15.21,-9.78 22.938,-19.515c-5.371,13.043 -13.326,22.078 -22.938,26.713l-19.104,0c-8.728,-1.596 -14.991,-9.521 -19.342,-22.352c-0.459,-1.217 -0.882,-2.555 -1.268,-4.03l-0.13,0.005l-0.053,0.002c-4.291,14.657 -11.67,23.558 -22.314,26.375l-17.334,0c-11.911,-5.121 -19.216,-14.848 -24.383,-26.713c5.69,11.846 13.022,14.513 24.383,19.515l17.334,0c10.17,-2.74 17.506,-4.657 22.302,-19.177Zm-60.856,-64.952c6.552,6.195 13.282,9.323 20.102,9.367c6.821,0.044 13.732,-2.996 20.646,-9.139c-13.084,-11.992 -26.992,-10.807 -40.748,-0.228Zm81.739,-0c6.553,6.195 13.282,9.323 20.103,9.367c6.82,0.044 13.731,-2.996 20.645,-9.139c-13.084,-11.992 -26.992,-10.807 -40.748,-0.228Zm-5.212,-25.907c-1.356,5.668 4.439,8.281 7.632,2.353c8.512,-26.269 34.381,-29.447 48.208,-0c2.69,5.729 8.809,5.312 7.767,-2.353c-17.739,-34.938 -50.326,-32.47 -63.607,-0Zm-30.114,-0.887c1.357,5.669 -4.439,8.282 -7.632,2.353c-8.512,-26.268 -34.38,-29.447 -48.208,0c-2.69,5.73 -8.809,5.312 -7.767,-2.353c17.739,-34.937 50.327,-32.469 63.607,0Z" style="stroke:#000;stroke-width:1.44px;stroke-linecap:round;stroke-linejoin:round;stroke-miterlimit:1.5;"/></g><g id="Semibold-S"><path id="Black-L22" serif:id="Black-L" d="M8510.71,2586.58c92.561,-0 167.708,75.148 167.708,167.708c0,92.561 -75.147,167.709 -167.708,167.709c-92.561,-0 -167.708,-75.148 -167.708,-167.709c-0,-92.56 75.147,-167.708 167.708,-167.708Zm0.2,56.743c-1.379,0.001 -2.758,0.014 -4.136,0.037c-29.064,0.488 -57.262,5.35 -84.078,25.43l0,86.524c11.492,62.803 40.484,100.3 88.786,109.884l0.284,0.056c48.576,-17.397 78.084,-53.531 86.958,-109.94l-0,-86.524c-30.687,-20.718 -59.507,-25.461 -87.469,-25.467l-0.345,-0Zm0.663,142.921c-6.986,0.19 -13.993,-7.637 -20.93,-22.501c-21.677,30.204 -43.417,33.029 -66.041,0c23.693,27.353 43.671,24.495 66.041,-5.152c14.157,28.682 26.339,30.972 39.455,-0c25.788,24.335 48.373,31.503 66.272,6.827c-17.37,30.308 -39.993,23.636 -65.263,-1.675c-6.378,14.936 -12.845,22.173 -19.331,22.493c0.396,1.377 0.811,2.707 1.245,3.986c3.759,9.963 10.029,11.829 19.128,14.987l18.893,-0c8.778,-7.091 15.041,-9.673 22.683,-19.3c-5.311,12.899 -13.177,21.835 -22.683,26.418l-18.893,-0c-8.632,-1.579 -14.825,-9.415 -19.128,-22.105c-0.454,-1.204 -0.872,-2.527 -1.254,-3.986l-0.129,0.006l-0.052,0.001c-4.244,14.496 -11.541,23.298 -22.067,26.084l-17.143,-0c-11.78,-5.064 -19.003,-14.684 -24.114,-26.418c5.628,11.715 12.878,14.353 24.114,19.3l17.143,-0c10.056,-2.71 17.312,-4.606 22.054,-18.965Zm-60.182,-64.234c6.479,6.126 13.135,9.22 19.88,9.263c6.745,0.044 13.579,-2.963 20.417,-9.038c-12.94,-11.86 -26.694,-10.687 -40.297,-0.225Zm80.835,-0c6.48,6.126 13.135,9.22 19.88,9.263c6.745,0.044 13.579,-2.963 20.417,-9.038c-12.939,-11.86 -26.693,-10.687 -40.297,-0.225Zm-5.154,-25.621c-1.342,5.606 4.389,8.19 7.547,2.327c8.418,-25.978 34,-29.122 47.675,-0c2.661,5.666 8.711,5.253 7.681,-2.327c-17.543,-34.551 -49.77,-32.111 -62.903,0Zm-29.782,-0.877c1.342,5.606 -4.389,8.19 -7.547,2.327c-8.418,-25.978 -34.001,-29.122 -47.675,0c-2.661,5.666 -8.712,5.253 -7.681,-2.327c17.542,-34.551 49.77,-32.11 62.903,0Z" style="stroke:#000;stroke-width:1.43px;stroke-linecap:round;stroke-linejoin:round;stroke-miterlimit:1.5;"/></g><g id="Medium-S"><path id="Black-L23" serif:id="Black-L" d="M7271.56,2585.5c91.756,-0 166.25,74.494 166.25,166.25c0,91.756 -74.494,166.25 -166.25,166.25c-91.756,-0 -166.25,-74.494 -166.25,-166.25c0,-91.756 74.494,-166.25 166.25,-166.25Zm0.198,56.249c-1.367,0.002 -2.734,0.015 -4.099,0.038c-28.812,0.483 -56.765,5.303 -83.347,25.207l-0,85.772c11.391,62.257 40.131,99.428 88.013,108.929l0.281,0.056c48.154,-17.246 77.406,-53.066 86.202,-108.985l0,-85.772c-30.42,-20.537 -58.989,-25.238 -86.708,-25.245l-0.342,0Zm0.658,141.678c-6.926,0.189 -13.872,-7.57 -20.749,-22.304c-21.488,29.941 -43.039,32.741 -65.466,-0c23.486,27.115 43.291,24.281 65.466,-5.108c14.034,28.433 26.11,30.702 39.113,-0c25.563,24.124 47.952,31.229 65.695,6.768c-17.219,30.045 -39.645,23.431 -64.695,-1.66c-6.322,14.805 -12.734,21.979 -19.163,22.297c0.392,1.365 0.804,2.683 1.234,3.951c3.726,9.876 9.941,11.726 18.961,14.856l18.729,0c8.702,-7.029 14.911,-9.588 22.487,-19.131c-5.265,12.786 -13.064,21.644 -22.487,26.188l-18.729,-0c-8.556,-1.565 -14.696,-9.334 -18.961,-21.913c-0.451,-1.193 -0.865,-2.505 -1.243,-3.951l-0.128,0.006l-0.052,0.001c-4.206,14.369 -11.441,23.095 -21.875,25.857l-16.994,-0c-11.677,-5.02 -18.838,-14.557 -23.904,-26.188c5.579,11.613 12.766,14.228 23.904,19.131l16.994,0c9.969,-2.686 17.162,-4.566 21.863,-18.8Zm-59.659,-63.675c6.423,6.073 13.02,9.14 19.707,9.183c6.686,0.043 13.461,-2.938 20.239,-8.96c-12.827,-11.756 -26.461,-10.594 -39.946,-0.223Zm80.132,-0c6.423,6.073 13.021,9.14 19.707,9.183c6.686,0.043 13.461,-2.938 20.24,-8.96c-12.827,-11.756 -26.462,-10.594 -39.947,-0.223Zm-5.109,-25.398c-1.331,5.557 4.351,8.119 7.481,2.307c8.345,-25.753 33.705,-28.869 47.261,-0c2.637,5.617 8.635,5.207 7.614,-2.307c-17.39,-34.251 -49.337,-31.831 -62.356,0Zm-29.523,-0.869c1.33,5.557 -4.352,8.119 -7.482,2.306c-8.344,-25.752 -33.705,-28.868 -47.26,0c-2.638,5.617 -8.636,5.208 -7.615,-2.306c17.391,-34.251 49.338,-31.832 62.357,-0Z" style="stroke:#000;stroke-width:1.41px;stroke-linecap:round;stroke-linejoin:round;stroke-miterlimit:1.5;"/></g><g id="Regular-S"><path id="Black-L24" serif:id="Black-L" d="M6042.45,2586.06c90.721,-0 164.375,73.654 164.375,164.375c-0,90.721 -73.654,164.375 -164.375,164.375c-90.721,-0 -164.375,-73.654 -164.375,-164.375c-0,-90.721 73.654,-164.375 164.375,-164.375Zm0.196,55.615c-1.352,0.001 -2.704,0.014 -4.053,0.037c-28.487,0.478 -56.125,5.243 -82.407,24.924l-0,84.804c11.263,61.555 39.678,98.306 87.02,107.7l0.279,0.055c47.61,-17.051 76.532,-52.467 85.229,-107.755l0,-84.804c-30.077,-20.306 -58.323,-24.955 -85.73,-24.961l-0.338,-0Zm0.65,140.08c-6.847,0.186 -13.715,-7.484 -20.514,-22.053c-21.246,29.604 -42.554,32.372 -64.728,0c23.221,26.809 42.802,24.007 64.728,-5.05c13.875,28.112 25.815,30.356 38.671,-0c25.275,23.852 47.412,30.877 64.954,6.691c-17.025,29.706 -39.198,23.167 -63.965,-1.641c-6.251,14.639 -12.59,21.732 -18.947,22.046c0.388,1.35 0.794,2.652 1.22,3.907c3.684,9.764 9.829,11.593 18.747,14.688l18.518,0c8.604,-6.95 14.743,-9.48 22.233,-18.915c-5.206,12.642 -12.916,21.4 -22.233,25.892l-18.518,0c-8.459,-1.547 -14.53,-9.228 -18.747,-21.665c-0.445,-1.18 -0.855,-2.477 -1.229,-3.907l-0.127,0.005l-0.051,0.002c-4.159,14.207 -11.311,22.834 -21.628,25.565l-16.802,0c-11.546,-4.963 -18.626,-14.392 -23.635,-25.892c5.516,11.482 12.623,14.067 23.635,18.915l16.802,0c9.857,-2.656 16.968,-4.514 21.616,-18.588Zm-58.986,-62.957c6.351,6.004 12.874,9.037 19.485,9.079c6.61,0.043 13.309,-2.904 20.011,-8.858c-12.682,-11.624 -26.163,-10.475 -39.496,-0.221Zm79.228,-0c6.351,6.004 12.874,9.037 19.485,9.079c6.611,0.043 13.31,-2.904 20.012,-8.858c-12.683,-11.624 -26.164,-10.475 -39.497,-0.221Zm-5.052,-25.111c-1.315,5.494 4.303,8.027 7.398,2.28c8.25,-25.462 33.324,-28.543 46.727,0c2.608,5.554 8.538,5.149 7.529,-2.28c-17.194,-33.865 -48.781,-31.473 -61.654,-0Zm-29.189,-0.86c1.315,5.495 -4.302,8.027 -7.397,2.281c-8.251,-25.462 -33.325,-28.543 -46.728,-0c-2.608,5.553 -8.538,5.149 -7.529,-2.281c17.195,-33.864 48.781,-31.472 61.654,0Z" style="stroke:#000;stroke-width:1.4px;stroke-linecap:round;stroke-linejoin:round;stroke-miterlimit:1.5;"/></g><g id="Light-S"><path id="Black-L25" serif:id="Black-L" d="M4805.45,2592.54c88.997,-0 161.25,72.254 161.25,161.25c0,88.996 -72.253,161.25 -161.25,161.25c-88.996,-0 -161.25,-72.254 -161.25,-161.25c0,-88.996 72.254,-161.25 161.25,-161.25Zm0.192,54.557c-1.326,0.002 -2.652,0.015 -3.976,0.037c-27.945,0.469 -55.057,5.144 -80.84,24.45l-0,83.192c11.049,60.384 38.924,96.437 85.366,105.653l0.273,0.053c46.706,-16.726 75.078,-51.469 83.61,-105.706l-0,-83.192c-29.506,-19.92 -57.215,-24.48 -84.101,-24.487l-0.332,0Zm0.638,137.418c-6.717,0.182 -13.454,-7.343 -20.124,-21.634c-20.842,29.041 -41.745,31.756 -63.498,-0c22.78,26.299 41.989,23.551 63.498,-4.955c13.612,27.579 25.325,29.78 37.936,0c24.794,23.399 46.51,30.291 63.719,6.565c-16.701,29.141 -38.452,22.726 -62.749,-1.61c-6.132,14.36 -12.35,21.318 -18.587,21.626c0.381,1.325 0.78,2.603 1.197,3.833c3.614,9.579 9.643,11.373 18.391,14.409l18.166,0c8.44,-6.817 14.462,-9.3 21.81,-18.556c-5.107,12.402 -12.67,20.994 -21.81,25.4l-18.166,0c-8.298,-1.517 -14.254,-9.052 -18.391,-21.253c-0.437,-1.157 -0.838,-2.43 -1.206,-3.832l-0.124,0.005l-0.05,0.001c-4.08,13.937 -11.096,22.401 -21.217,25.079l-16.483,0c-11.326,-4.868 -18.271,-14.118 -23.185,-25.4c5.411,11.264 12.382,13.8 23.185,18.556l16.483,0c9.67,-2.605 16.646,-4.428 21.205,-18.234Zm-57.865,-61.761c6.231,5.89 12.63,8.865 19.115,8.907c6.485,0.042 13.056,-2.849 19.631,-8.69c-12.442,-11.403 -25.666,-10.276 -38.746,-0.217Zm77.723,0c6.23,5.89 12.629,8.865 19.114,8.907c6.485,0.042 13.057,-2.849 19.631,-8.69c-12.441,-11.403 -25.666,-10.276 -38.745,-0.217Zm-4.956,-24.634c-1.29,5.39 4.22,7.875 7.257,2.237c8.093,-24.977 32.691,-28 45.839,0c2.558,5.448 8.376,5.052 7.385,-2.237c-16.867,-33.22 -47.853,-30.874 -60.481,0Zm-28.635,-0.843c1.29,5.39 -4.22,7.875 -7.256,2.237c-8.094,-24.977 -32.692,-28 -45.839,0c-2.559,5.448 -8.376,5.052 -7.386,-2.237c16.867,-33.221 47.854,-30.874 60.481,0Z" style="stroke:#000;stroke-width:1.37px;stroke-linecap:round;stroke-linejoin:round;stroke-miterlimit:1.5;"/></g><g id="Thin-S"><path id="Black-L26" serif:id="Black-L" d="M3568.44,2598.3c86.697,-0 157.083,70.387 157.083,157.083c0,86.697 -70.386,157.084 -157.083,157.084c-86.697,-0 -157.083,-70.387 -157.083,-157.084c-0,-86.696 70.386,-157.083 157.083,-157.083Zm0.187,53.148c-1.292,0.001 -2.583,0.014 -3.873,0.035c-27.223,0.457 -53.635,5.011 -78.752,23.818l0,81.043c10.764,58.824 37.919,93.945 83.161,102.922l0.266,0.053c45.499,-16.295 73.137,-50.139 81.449,-102.975l-0,-81.043c-28.743,-19.405 -55.737,-23.847 -81.928,-23.853l-0.323,-0Zm0.621,133.866c-6.543,0.178 -13.106,-7.152 -19.604,-21.075c-20.303,28.291 -40.666,30.936 -61.857,0c22.192,25.62 40.904,22.943 61.857,-4.826c13.26,26.866 24.67,29.01 36.956,0c24.154,22.794 45.308,29.508 62.073,6.395c-16.27,28.388 -37.459,22.139 -61.128,-1.569c-5.974,13.99 -12.031,20.768 -18.107,21.068c0.371,1.29 0.76,2.535 1.166,3.734c3.521,9.331 9.394,11.079 17.916,14.037l17.696,-0c8.223,-6.642 14.089,-9.06 21.247,-18.077c-4.975,12.081 -12.343,20.451 -21.247,24.744l-17.696,-0c-8.084,-1.479 -13.885,-8.819 -17.916,-20.704c-0.425,-1.128 -0.817,-2.367 -1.174,-3.734l-0.121,0.005l-0.049,0.002c-3.974,13.577 -10.81,21.821 -20.669,24.431l-16.057,-0c-11.033,-4.743 -17.799,-13.754 -22.585,-24.744c5.27,10.973 12.062,13.443 22.585,18.077l16.057,-0c9.42,-2.539 16.216,-4.315 20.657,-17.764Zm-56.369,-60.164c6.069,5.738 12.303,8.635 18.62,8.676c6.318,0.041 12.719,-2.775 19.124,-8.465c-12.12,-11.109 -25.003,-10.01 -37.744,-0.211Zm75.714,-0c6.069,5.738 12.303,8.635 18.62,8.676c6.318,0.041 12.719,-2.775 19.124,-8.465c-12.12,-11.109 -25.003,-10.01 -37.744,-0.211Zm-4.828,-23.998c-1.257,5.251 4.112,7.671 7.069,2.18c7.884,-24.333 31.847,-27.277 44.655,-0c2.492,5.307 8.159,4.92 7.194,-2.18c-16.431,-32.362 -46.617,-30.076 -58.918,0Zm-27.895,-0.821c1.257,5.251 -4.111,7.671 -7.069,2.179c-7.884,-24.332 -31.846,-27.276 -44.654,0c-2.493,5.308 -8.16,4.921 -7.195,-2.179c16.431,-32.362 46.617,-30.076 58.918,-0Z" style="stroke:#000;stroke-width:1.34px;stroke-linecap:round;stroke-linejoin:round;stroke-miterlimit:1.5;"/></g><g id="Ultralight-S"><path id="Black-L27" serif:id="Black-L" d="M2326.97,2600.46c85.662,-0 155.208,69.547 155.208,155.208c0,85.662 -69.546,155.209 -155.208,155.209c-85.662,-0 -155.208,-69.547 -155.208,-155.209c-0,-85.661 69.546,-155.208 155.208,-155.208Zm0.185,52.513c-1.276,0.002 -2.553,0.014 -3.827,0.035c-26.898,0.452 -52.994,4.952 -77.812,23.534l0,80.075c10.635,58.123 37.466,92.824 82.168,101.695l0.263,0.051c44.956,-16.1 72.264,-49.541 80.477,-101.746l-0,-80.075c-28.4,-19.173 -55.071,-23.562 -80.95,-23.569l-0.319,0Zm0.614,132.269c-6.466,0.176 -12.95,-7.067 -19.37,-20.823c-20.062,27.952 -40.181,30.566 -61.119,-0c21.927,25.314 40.416,22.668 61.119,-4.769c13.101,26.545 24.375,28.663 36.514,-0c23.866,22.522 44.768,29.155 61.332,6.318c-16.075,28.05 -37.012,21.875 -60.398,-1.549c-5.902,13.822 -11.888,20.519 -17.89,20.816c0.366,1.275 0.75,2.505 1.152,3.689c3.478,9.22 9.281,10.947 17.702,13.869l17.485,0c8.124,-6.562 13.92,-8.951 20.993,-17.86c-4.916,11.937 -12.196,20.206 -20.993,24.448l-17.485,0c-7.988,-1.461 -13.72,-8.714 -17.702,-20.457c-0.421,-1.114 -0.807,-2.339 -1.161,-3.689l-0.119,0.005l-0.049,0.002c-3.926,13.414 -10.68,21.561 -20.422,24.139l-15.865,0c-10.902,-4.686 -17.587,-13.589 -22.316,-24.448c5.208,10.841 11.918,13.282 22.316,17.86l15.865,0c9.307,-2.507 16.022,-4.262 20.411,-17.551Zm-55.697,-59.447c5.997,5.67 12.156,8.533 18.398,8.574c6.243,0.04 12.568,-2.743 18.896,-8.365c-11.975,-10.976 -24.704,-9.891 -37.294,-0.209Zm74.81,0c5.997,5.67 12.157,8.533 18.399,8.574c6.242,0.04 12.567,-2.743 18.895,-8.365c-11.975,-10.976 -24.704,-9.891 -37.294,-0.209Zm-4.77,-23.71c-1.241,5.188 4.063,7.579 6.985,2.153c7.79,-24.042 31.466,-26.951 44.122,-0c2.462,5.244 8.062,4.862 7.108,-2.153c-16.235,-31.976 -46.06,-29.718 -58.215,-0Zm-27.562,-0.812c1.242,5.188 -4.062,7.58 -6.984,2.153c-7.79,-24.041 -31.466,-26.951 -44.122,0c-2.462,5.244 -8.062,4.862 -7.109,-2.153c16.236,-31.976 46.061,-29.717 58.215,0Z" style="stroke:#000;stroke-width:1.32px;stroke-linecap:round;stroke-linejoin:round;stroke-miterlimit:1.5;"/></g></g></svg>